G04 #@! TF.FileFunction,Legend,Bot*
%FSLAX46Y46*%
G04 Gerber Fmt 4.6, Leading zero omitted, Abs format (unit mm)*
G04 Created by KiCad (PCBNEW 4.0.7) date Tue May  8 00:57:31 2018*
%MOMM*%
%LPD*%
G01*
G04 APERTURE LIST*
%ADD10C,0.150000*%
%ADD11C,0.200000*%
%ADD12C,0.127000*%
%ADD13C,0.025400*%
%ADD14C,0.209550*%
G04 APERTURE END LIST*
D10*
D11*
X128143000Y-94234000D02*
X128270000Y-94234000D01*
X126873000Y-95504000D02*
X128143000Y-94234000D01*
X126746000Y-95504000D02*
X126873000Y-95504000D01*
X121158000Y-95504000D02*
X126746000Y-95504000D01*
X120904000Y-95758000D02*
X121158000Y-95504000D01*
X119634000Y-95758000D02*
X120904000Y-95758000D01*
X128016000Y-91694000D02*
X128270000Y-91694000D01*
X126746000Y-92964000D02*
X128016000Y-91694000D01*
X126619000Y-92964000D02*
X126746000Y-92964000D01*
X121793000Y-92964000D02*
X126619000Y-92964000D01*
X121539000Y-93218000D02*
X119634000Y-93218000D01*
X121793000Y-92964000D02*
X121539000Y-93218000D01*
D12*
X121448285Y-98642714D02*
X121702285Y-98279857D01*
X121883713Y-98642714D02*
X121883713Y-97880714D01*
X121593428Y-97880714D01*
X121520856Y-97917000D01*
X121484571Y-97953286D01*
X121448285Y-98025857D01*
X121448285Y-98134714D01*
X121484571Y-98207286D01*
X121520856Y-98243571D01*
X121593428Y-98279857D01*
X121883713Y-98279857D01*
X121157999Y-98606429D02*
X121049142Y-98642714D01*
X120867713Y-98642714D01*
X120795142Y-98606429D01*
X120758856Y-98570143D01*
X120722571Y-98497571D01*
X120722571Y-98425000D01*
X120758856Y-98352429D01*
X120795142Y-98316143D01*
X120867713Y-98279857D01*
X121012856Y-98243571D01*
X121085428Y-98207286D01*
X121121713Y-98171000D01*
X121157999Y-98098429D01*
X121157999Y-98025857D01*
X121121713Y-97953286D01*
X121085428Y-97917000D01*
X121012856Y-97880714D01*
X120831428Y-97880714D01*
X120722571Y-97917000D01*
X120504857Y-97880714D02*
X120069428Y-97880714D01*
X120287142Y-98642714D02*
X120287142Y-97880714D01*
X121611572Y-90297000D02*
X121684143Y-90260714D01*
X121793000Y-90260714D01*
X121901857Y-90297000D01*
X121974429Y-90369571D01*
X122010714Y-90442143D01*
X122047000Y-90587286D01*
X122047000Y-90696143D01*
X122010714Y-90841286D01*
X121974429Y-90913857D01*
X121901857Y-90986429D01*
X121793000Y-91022714D01*
X121720429Y-91022714D01*
X121611572Y-90986429D01*
X121575286Y-90950143D01*
X121575286Y-90696143D01*
X121720429Y-90696143D01*
X121248714Y-91022714D02*
X121248714Y-90260714D01*
X120813286Y-91022714D01*
X120813286Y-90260714D01*
X120450428Y-91022714D02*
X120450428Y-90260714D01*
X120269000Y-90260714D01*
X120160143Y-90297000D01*
X120087571Y-90369571D01*
X120051286Y-90442143D01*
X120015000Y-90587286D01*
X120015000Y-90696143D01*
X120051286Y-90841286D01*
X120087571Y-90913857D01*
X120160143Y-90986429D01*
X120269000Y-91022714D01*
X120450428Y-91022714D01*
X109183714Y-98352429D02*
X108603143Y-98352429D01*
X108893429Y-98642714D02*
X108893429Y-98062143D01*
X107877428Y-97880714D02*
X108240285Y-97880714D01*
X108276571Y-98243571D01*
X108240285Y-98207286D01*
X108167714Y-98171000D01*
X107986285Y-98171000D01*
X107913714Y-98207286D01*
X107877428Y-98243571D01*
X107841143Y-98316143D01*
X107841143Y-98497571D01*
X107877428Y-98570143D01*
X107913714Y-98606429D01*
X107986285Y-98642714D01*
X108167714Y-98642714D01*
X108240285Y-98606429D01*
X108276571Y-98570143D01*
X107623429Y-97880714D02*
X107369429Y-98642714D01*
X107115429Y-97880714D01*
X109183714Y-96066429D02*
X109074857Y-96102714D01*
X108893428Y-96102714D01*
X108820857Y-96066429D01*
X108784571Y-96030143D01*
X108748286Y-95957571D01*
X108748286Y-95885000D01*
X108784571Y-95812429D01*
X108820857Y-95776143D01*
X108893428Y-95739857D01*
X109038571Y-95703571D01*
X109111143Y-95667286D01*
X109147428Y-95631000D01*
X109183714Y-95558429D01*
X109183714Y-95485857D01*
X109147428Y-95413286D01*
X109111143Y-95377000D01*
X109038571Y-95340714D01*
X108857143Y-95340714D01*
X108748286Y-95377000D01*
X107986286Y-96030143D02*
X108022572Y-96066429D01*
X108131429Y-96102714D01*
X108204000Y-96102714D01*
X108312857Y-96066429D01*
X108385429Y-95993857D01*
X108421714Y-95921286D01*
X108458000Y-95776143D01*
X108458000Y-95667286D01*
X108421714Y-95522143D01*
X108385429Y-95449571D01*
X108312857Y-95377000D01*
X108204000Y-95340714D01*
X108131429Y-95340714D01*
X108022572Y-95377000D01*
X107986286Y-95413286D01*
X107659714Y-96102714D02*
X107659714Y-95340714D01*
X107224286Y-96102714D02*
X107550857Y-95667286D01*
X107224286Y-95340714D02*
X107659714Y-95776143D01*
X109401428Y-93562714D02*
X109401428Y-92800714D01*
X109147428Y-93345000D01*
X108893428Y-92800714D01*
X108893428Y-93562714D01*
X108530571Y-93562714D02*
X108530571Y-92800714D01*
X108204000Y-93526429D02*
X108095143Y-93562714D01*
X107913714Y-93562714D01*
X107841143Y-93526429D01*
X107804857Y-93490143D01*
X107768572Y-93417571D01*
X107768572Y-93345000D01*
X107804857Y-93272429D01*
X107841143Y-93236143D01*
X107913714Y-93199857D01*
X108058857Y-93163571D01*
X108131429Y-93127286D01*
X108167714Y-93091000D01*
X108204000Y-93018429D01*
X108204000Y-92945857D01*
X108167714Y-92873286D01*
X108131429Y-92837000D01*
X108058857Y-92800714D01*
X107877429Y-92800714D01*
X107768572Y-92837000D01*
X107296858Y-92800714D02*
X107151715Y-92800714D01*
X107079143Y-92837000D01*
X107006572Y-92909571D01*
X106970286Y-93054714D01*
X106970286Y-93308714D01*
X107006572Y-93453857D01*
X107079143Y-93526429D01*
X107151715Y-93562714D01*
X107296858Y-93562714D01*
X107369429Y-93526429D01*
X107442000Y-93453857D01*
X107478286Y-93308714D01*
X107478286Y-93054714D01*
X107442000Y-92909571D01*
X107369429Y-92837000D01*
X107296858Y-92800714D01*
X109401428Y-91022714D02*
X109401428Y-90260714D01*
X109147428Y-90805000D01*
X108893428Y-90260714D01*
X108893428Y-91022714D01*
X108385429Y-90260714D02*
X108240286Y-90260714D01*
X108167714Y-90297000D01*
X108095143Y-90369571D01*
X108058857Y-90514714D01*
X108058857Y-90768714D01*
X108095143Y-90913857D01*
X108167714Y-90986429D01*
X108240286Y-91022714D01*
X108385429Y-91022714D01*
X108458000Y-90986429D01*
X108530571Y-90913857D01*
X108566857Y-90768714D01*
X108566857Y-90514714D01*
X108530571Y-90369571D01*
X108458000Y-90297000D01*
X108385429Y-90260714D01*
X107768571Y-90986429D02*
X107659714Y-91022714D01*
X107478285Y-91022714D01*
X107405714Y-90986429D01*
X107369428Y-90950143D01*
X107333143Y-90877571D01*
X107333143Y-90805000D01*
X107369428Y-90732429D01*
X107405714Y-90696143D01*
X107478285Y-90659857D01*
X107623428Y-90623571D01*
X107696000Y-90587286D01*
X107732285Y-90551000D01*
X107768571Y-90478429D01*
X107768571Y-90405857D01*
X107732285Y-90333286D01*
X107696000Y-90297000D01*
X107623428Y-90260714D01*
X107442000Y-90260714D01*
X107333143Y-90297000D01*
X107006571Y-91022714D02*
X107006571Y-90260714D01*
D13*
X131445000Y-86106000D02*
X96774000Y-86106000D01*
X96774000Y-102870000D02*
X131445000Y-102870000D01*
X131445000Y-86106000D02*
X131445000Y-102870000D01*
D14*
X113274021Y-90460287D02*
X113274021Y-89807144D01*
X113274021Y-90133716D02*
X112131021Y-90133716D01*
X112294307Y-90024859D01*
X112403164Y-89916001D01*
X112457593Y-89807144D01*
X112239879Y-90895715D02*
X112185450Y-90950144D01*
X112131021Y-91059001D01*
X112131021Y-91331144D01*
X112185450Y-91440001D01*
X112239879Y-91494430D01*
X112348736Y-91548858D01*
X112457593Y-91548858D01*
X112620879Y-91494430D01*
X113274021Y-90841287D01*
X113274021Y-91548858D01*
X112131021Y-92256429D02*
X112131021Y-92365286D01*
X112185450Y-92474143D01*
X112239879Y-92528572D01*
X112348736Y-92583001D01*
X112566450Y-92637429D01*
X112838593Y-92637429D01*
X113056307Y-92583001D01*
X113165164Y-92528572D01*
X113219593Y-92474143D01*
X113274021Y-92365286D01*
X113274021Y-92256429D01*
X113219593Y-92147572D01*
X113165164Y-92093143D01*
X113056307Y-92038715D01*
X112838593Y-91984286D01*
X112566450Y-91984286D01*
X112348736Y-92038715D01*
X112239879Y-92093143D01*
X112185450Y-92147572D01*
X112131021Y-92256429D01*
X113274021Y-93181714D02*
X113274021Y-93399429D01*
X113219593Y-93508286D01*
X113165164Y-93562714D01*
X113001879Y-93671572D01*
X112784164Y-93726000D01*
X112348736Y-93726000D01*
X112239879Y-93671572D01*
X112185450Y-93617143D01*
X112131021Y-93508286D01*
X112131021Y-93290572D01*
X112185450Y-93181714D01*
X112239879Y-93127286D01*
X112348736Y-93072857D01*
X112620879Y-93072857D01*
X112729736Y-93127286D01*
X112784164Y-93181714D01*
X112838593Y-93290572D01*
X112838593Y-93508286D01*
X112784164Y-93617143D01*
X112729736Y-93671572D01*
X112620879Y-93726000D01*
X113165164Y-94215857D02*
X113219593Y-94270285D01*
X113274021Y-94215857D01*
X113219593Y-94161428D01*
X113165164Y-94215857D01*
X113274021Y-94215857D01*
X112566450Y-94215857D02*
X112620879Y-94270285D01*
X112675307Y-94215857D01*
X112620879Y-94161428D01*
X112566450Y-94215857D01*
X112675307Y-94215857D01*
X112675307Y-96012000D02*
X112675307Y-95631000D01*
X113274021Y-95631000D02*
X112131021Y-95631000D01*
X112131021Y-96175286D01*
X113274021Y-97100571D02*
X112675307Y-97100571D01*
X112566450Y-97046142D01*
X112512021Y-96937285D01*
X112512021Y-96719571D01*
X112566450Y-96610714D01*
X113219593Y-97100571D02*
X113274021Y-96991714D01*
X113274021Y-96719571D01*
X113219593Y-96610714D01*
X113110736Y-96556285D01*
X113001879Y-96556285D01*
X112893021Y-96610714D01*
X112838593Y-96719571D01*
X112838593Y-96991714D01*
X112784164Y-97100571D01*
X113274021Y-98134714D02*
X112131021Y-98134714D01*
X113219593Y-98134714D02*
X113274021Y-98025857D01*
X113274021Y-97808143D01*
X113219593Y-97699285D01*
X113165164Y-97644857D01*
X113056307Y-97590428D01*
X112729736Y-97590428D01*
X112620879Y-97644857D01*
X112566450Y-97699285D01*
X112512021Y-97808143D01*
X112512021Y-98025857D01*
X112566450Y-98134714D01*
X113219593Y-99114428D02*
X113274021Y-99005571D01*
X113274021Y-98787857D01*
X113219593Y-98679000D01*
X113110736Y-98624571D01*
X112675307Y-98624571D01*
X112566450Y-98679000D01*
X112512021Y-98787857D01*
X112512021Y-99005571D01*
X112566450Y-99114428D01*
X112675307Y-99168857D01*
X112784164Y-99168857D01*
X112893021Y-98624571D01*
X114163929Y-88936287D02*
X114109500Y-88990716D01*
X114055071Y-89099573D01*
X114055071Y-89371716D01*
X114109500Y-89480573D01*
X114163929Y-89535002D01*
X114272786Y-89589430D01*
X114381643Y-89589430D01*
X114544929Y-89535002D01*
X115198071Y-88881859D01*
X115198071Y-89589430D01*
X114055071Y-90297001D02*
X114055071Y-90405858D01*
X114109500Y-90514715D01*
X114163929Y-90569144D01*
X114272786Y-90623573D01*
X114490500Y-90678001D01*
X114762643Y-90678001D01*
X114980357Y-90623573D01*
X115089214Y-90569144D01*
X115143643Y-90514715D01*
X115198071Y-90405858D01*
X115198071Y-90297001D01*
X115143643Y-90188144D01*
X115089214Y-90133715D01*
X114980357Y-90079287D01*
X114762643Y-90024858D01*
X114490500Y-90024858D01*
X114272786Y-90079287D01*
X114163929Y-90133715D01*
X114109500Y-90188144D01*
X114055071Y-90297001D01*
X115198071Y-91766572D02*
X115198071Y-91113429D01*
X115198071Y-91440001D02*
X114055071Y-91440001D01*
X114218357Y-91331144D01*
X114327214Y-91222286D01*
X114381643Y-91113429D01*
X114055071Y-92147572D02*
X114055071Y-92909572D01*
X115198071Y-92419715D01*
X114762643Y-93345000D02*
X114762643Y-94215857D01*
X114055071Y-94977857D02*
X114055071Y-95086714D01*
X114109500Y-95195571D01*
X114163929Y-95250000D01*
X114272786Y-95304429D01*
X114490500Y-95358857D01*
X114762643Y-95358857D01*
X114980357Y-95304429D01*
X115089214Y-95250000D01*
X115143643Y-95195571D01*
X115198071Y-95086714D01*
X115198071Y-94977857D01*
X115143643Y-94869000D01*
X115089214Y-94814571D01*
X114980357Y-94760143D01*
X114762643Y-94705714D01*
X114490500Y-94705714D01*
X114272786Y-94760143D01*
X114163929Y-94814571D01*
X114109500Y-94869000D01*
X114055071Y-94977857D01*
X114055071Y-96393000D02*
X114055071Y-95848714D01*
X114599357Y-95794285D01*
X114544929Y-95848714D01*
X114490500Y-95957571D01*
X114490500Y-96229714D01*
X114544929Y-96338571D01*
X114599357Y-96393000D01*
X114708214Y-96447428D01*
X114980357Y-96447428D01*
X115089214Y-96393000D01*
X115143643Y-96338571D01*
X115198071Y-96229714D01*
X115198071Y-95957571D01*
X115143643Y-95848714D01*
X115089214Y-95794285D01*
X114762643Y-96937285D02*
X114762643Y-97808142D01*
X114055071Y-98570142D02*
X114055071Y-98678999D01*
X114109500Y-98787856D01*
X114163929Y-98842285D01*
X114272786Y-98896714D01*
X114490500Y-98951142D01*
X114762643Y-98951142D01*
X114980357Y-98896714D01*
X115089214Y-98842285D01*
X115143643Y-98787856D01*
X115198071Y-98678999D01*
X115198071Y-98570142D01*
X115143643Y-98461285D01*
X115089214Y-98406856D01*
X114980357Y-98352428D01*
X114762643Y-98297999D01*
X114490500Y-98297999D01*
X114272786Y-98352428D01*
X114163929Y-98406856D01*
X114109500Y-98461285D01*
X114055071Y-98570142D01*
X114055071Y-99985285D02*
X114055071Y-99440999D01*
X114599357Y-99386570D01*
X114544929Y-99440999D01*
X114490500Y-99549856D01*
X114490500Y-99821999D01*
X114544929Y-99930856D01*
X114599357Y-99985285D01*
X114708214Y-100039713D01*
X114980357Y-100039713D01*
X115089214Y-99985285D01*
X115143643Y-99930856D01*
X115198071Y-99821999D01*
X115198071Y-99549856D01*
X115143643Y-99440999D01*
X115089214Y-99386570D01*
X115979121Y-88555286D02*
X115979121Y-88773000D01*
X116033550Y-88881858D01*
X116142407Y-88990715D01*
X116360121Y-89045143D01*
X116741121Y-89045143D01*
X116958836Y-88990715D01*
X117067693Y-88881858D01*
X117122121Y-88773000D01*
X117122121Y-88555286D01*
X117067693Y-88446429D01*
X116958836Y-88337572D01*
X116741121Y-88283143D01*
X116360121Y-88283143D01*
X116142407Y-88337572D01*
X116033550Y-88446429D01*
X115979121Y-88555286D01*
X116360121Y-89535001D02*
X117503121Y-89535001D01*
X116414550Y-89535001D02*
X116360121Y-89643858D01*
X116360121Y-89861572D01*
X116414550Y-89970429D01*
X116468979Y-90024858D01*
X116577836Y-90079287D01*
X116904407Y-90079287D01*
X117013264Y-90024858D01*
X117067693Y-89970429D01*
X117122121Y-89861572D01*
X117122121Y-89643858D01*
X117067693Y-89535001D01*
X117067693Y-91004572D02*
X117122121Y-90895715D01*
X117122121Y-90678001D01*
X117067693Y-90569144D01*
X116958836Y-90514715D01*
X116523407Y-90514715D01*
X116414550Y-90569144D01*
X116360121Y-90678001D01*
X116360121Y-90895715D01*
X116414550Y-91004572D01*
X116523407Y-91059001D01*
X116632264Y-91059001D01*
X116741121Y-90514715D01*
X116360121Y-91548858D02*
X117122121Y-91548858D01*
X116468979Y-91548858D02*
X116414550Y-91603286D01*
X116360121Y-91712144D01*
X116360121Y-91875429D01*
X116414550Y-91984286D01*
X116523407Y-92038715D01*
X117122121Y-92038715D01*
X117013264Y-94107001D02*
X117067693Y-94052572D01*
X117122121Y-93889286D01*
X117122121Y-93780429D01*
X117067693Y-93617144D01*
X116958836Y-93508286D01*
X116849979Y-93453858D01*
X116632264Y-93399429D01*
X116468979Y-93399429D01*
X116251264Y-93453858D01*
X116142407Y-93508286D01*
X116033550Y-93617144D01*
X115979121Y-93780429D01*
X115979121Y-93889286D01*
X116033550Y-94052572D01*
X116087979Y-94107001D01*
X117122121Y-94760144D02*
X117067693Y-94651286D01*
X117013264Y-94596858D01*
X116904407Y-94542429D01*
X116577836Y-94542429D01*
X116468979Y-94596858D01*
X116414550Y-94651286D01*
X116360121Y-94760144D01*
X116360121Y-94923429D01*
X116414550Y-95032286D01*
X116468979Y-95086715D01*
X116577836Y-95141144D01*
X116904407Y-95141144D01*
X117013264Y-95086715D01*
X117067693Y-95032286D01*
X117122121Y-94923429D01*
X117122121Y-94760144D01*
X117122121Y-95794287D02*
X117067693Y-95685429D01*
X116958836Y-95631001D01*
X115979121Y-95631001D01*
X117122121Y-96393001D02*
X117067693Y-96284143D01*
X116958836Y-96229715D01*
X115979121Y-96229715D01*
X117067693Y-97263857D02*
X117122121Y-97155000D01*
X117122121Y-96937286D01*
X117067693Y-96828429D01*
X116958836Y-96774000D01*
X116523407Y-96774000D01*
X116414550Y-96828429D01*
X116360121Y-96937286D01*
X116360121Y-97155000D01*
X116414550Y-97263857D01*
X116523407Y-97318286D01*
X116632264Y-97318286D01*
X116741121Y-96774000D01*
X117067693Y-98298000D02*
X117122121Y-98189143D01*
X117122121Y-97971429D01*
X117067693Y-97862571D01*
X117013264Y-97808143D01*
X116904407Y-97753714D01*
X116577836Y-97753714D01*
X116468979Y-97808143D01*
X116414550Y-97862571D01*
X116360121Y-97971429D01*
X116360121Y-98189143D01*
X116414550Y-98298000D01*
X116360121Y-98624571D02*
X116360121Y-99060000D01*
X115979121Y-98787857D02*
X116958836Y-98787857D01*
X117067693Y-98842285D01*
X117122121Y-98951143D01*
X117122121Y-99060000D01*
X117122121Y-99604286D02*
X117067693Y-99495428D01*
X117013264Y-99441000D01*
X116904407Y-99386571D01*
X116577836Y-99386571D01*
X116468979Y-99441000D01*
X116414550Y-99495428D01*
X116360121Y-99604286D01*
X116360121Y-99767571D01*
X116414550Y-99876428D01*
X116468979Y-99930857D01*
X116577836Y-99985286D01*
X116904407Y-99985286D01*
X117013264Y-99930857D01*
X117067693Y-99876428D01*
X117122121Y-99767571D01*
X117122121Y-99604286D01*
X117122121Y-100475143D02*
X116360121Y-100475143D01*
X116577836Y-100475143D02*
X116468979Y-100529571D01*
X116414550Y-100584000D01*
X116360121Y-100692857D01*
X116360121Y-100801714D01*
D13*
X96774000Y-102870000D02*
X96774000Y-86106000D01*
M02*
