G04 #@! TF.FileFunction,Legend,Top*
%FSLAX46Y46*%
G04 Gerber Fmt 4.6, Leading zero omitted, Abs format (unit mm)*
G04 Created by KiCad (PCBNEW 4.0.7) date Tue May  8 00:57:31 2018*
%MOMM*%
%LPD*%
G01*
G04 APERTURE LIST*
%ADD10C,0.150000*%
%ADD11C,0.114300*%
%ADD12C,0.200000*%
%ADD13C,0.127000*%
%ADD14C,0.101600*%
%ADD15C,0.025400*%
%ADD16C,0.254000*%
%ADD17C,0.635000*%
%ADD18C,0.100000*%
%ADD19C,0.381000*%
%ADD20C,0.066040*%
%ADD21C,0.304800*%
G04 APERTURE END LIST*
D10*
D11*
X125825047Y-102229810D02*
X125825047Y-101721810D01*
X125946000Y-101721810D01*
X126018571Y-101746000D01*
X126066952Y-101794381D01*
X126091143Y-101842762D01*
X126115333Y-101939524D01*
X126115333Y-102012095D01*
X126091143Y-102108857D01*
X126066952Y-102157238D01*
X126018571Y-102205619D01*
X125946000Y-102229810D01*
X125825047Y-102229810D01*
X126284666Y-101721810D02*
X126599143Y-101721810D01*
X126429809Y-101915333D01*
X126502381Y-101915333D01*
X126550762Y-101939524D01*
X126574952Y-101963714D01*
X126599143Y-102012095D01*
X126599143Y-102133048D01*
X126574952Y-102181429D01*
X126550762Y-102205619D01*
X126502381Y-102229810D01*
X126357238Y-102229810D01*
X126308857Y-102205619D01*
X126284666Y-102181429D01*
D12*
X127571500Y-90043000D02*
X127254000Y-90043000D01*
X122047000Y-90043000D02*
X122682000Y-90043000D01*
X122555000Y-90043000D02*
X127317500Y-90043000D01*
D13*
X128850571Y-101391357D02*
X129334381Y-101391357D01*
X129092476Y-101633262D02*
X129092476Y-101149452D01*
X129939142Y-100998262D02*
X129636761Y-100998262D01*
X129606523Y-101300643D01*
X129636761Y-101270405D01*
X129697238Y-101240167D01*
X129848428Y-101240167D01*
X129908904Y-101270405D01*
X129939142Y-101300643D01*
X129969381Y-101361119D01*
X129969381Y-101512310D01*
X129939142Y-101572786D01*
X129908904Y-101603024D01*
X129848428Y-101633262D01*
X129697238Y-101633262D01*
X129636761Y-101603024D01*
X129606523Y-101572786D01*
X130150809Y-100998262D02*
X130362476Y-101633262D01*
X130574143Y-100998262D01*
X129183191Y-86804500D02*
X129122714Y-86774262D01*
X129032000Y-86774262D01*
X128941286Y-86804500D01*
X128880810Y-86864976D01*
X128850571Y-86925452D01*
X128820333Y-87046405D01*
X128820333Y-87137119D01*
X128850571Y-87258071D01*
X128880810Y-87318548D01*
X128941286Y-87379024D01*
X129032000Y-87409262D01*
X129092476Y-87409262D01*
X129183191Y-87379024D01*
X129213429Y-87348786D01*
X129213429Y-87137119D01*
X129092476Y-87137119D01*
X129485571Y-87409262D02*
X129485571Y-86774262D01*
X129848429Y-87409262D01*
X129848429Y-86774262D01*
X130150809Y-87409262D02*
X130150809Y-86774262D01*
X130302000Y-86774262D01*
X130392714Y-86804500D01*
X130453190Y-86864976D01*
X130483429Y-86925452D01*
X130513667Y-87046405D01*
X130513667Y-87137119D01*
X130483429Y-87258071D01*
X130453190Y-87318548D01*
X130392714Y-87379024D01*
X130302000Y-87409262D01*
X130150809Y-87409262D01*
D14*
X122775738Y-89695262D02*
X122564071Y-89392881D01*
X122412880Y-89695262D02*
X122412880Y-89060262D01*
X122654785Y-89060262D01*
X122715261Y-89090500D01*
X122745500Y-89120738D01*
X122775738Y-89181214D01*
X122775738Y-89271929D01*
X122745500Y-89332405D01*
X122715261Y-89362643D01*
X122654785Y-89392881D01*
X122412880Y-89392881D01*
X123047880Y-89362643D02*
X123259547Y-89362643D01*
X123350261Y-89695262D02*
X123047880Y-89695262D01*
X123047880Y-89060262D01*
X123350261Y-89060262D01*
X123592166Y-89665024D02*
X123682881Y-89695262D01*
X123834071Y-89695262D01*
X123894547Y-89665024D01*
X123924785Y-89634786D01*
X123955024Y-89574310D01*
X123955024Y-89513833D01*
X123924785Y-89453357D01*
X123894547Y-89423119D01*
X123834071Y-89392881D01*
X123713119Y-89362643D01*
X123652643Y-89332405D01*
X123622404Y-89302167D01*
X123592166Y-89241690D01*
X123592166Y-89181214D01*
X123622404Y-89120738D01*
X123652643Y-89090500D01*
X123713119Y-89060262D01*
X123864309Y-89060262D01*
X123955024Y-89090500D01*
X124227166Y-89362643D02*
X124438833Y-89362643D01*
X124529547Y-89695262D02*
X124227166Y-89695262D01*
X124227166Y-89060262D01*
X124529547Y-89060262D01*
X124710976Y-89060262D02*
X125073833Y-89060262D01*
X124892405Y-89695262D02*
X124892405Y-89060262D01*
X122261690Y-88950800D02*
X125134310Y-88950800D01*
X122881571Y-88331524D02*
X122972286Y-88361762D01*
X123123476Y-88361762D01*
X123183952Y-88331524D01*
X123214190Y-88301286D01*
X123244429Y-88240810D01*
X123244429Y-88180333D01*
X123214190Y-88119857D01*
X123183952Y-88089619D01*
X123123476Y-88059381D01*
X123002524Y-88029143D01*
X122942048Y-87998905D01*
X122911809Y-87968667D01*
X122881571Y-87908190D01*
X122881571Y-87847714D01*
X122911809Y-87787238D01*
X122942048Y-87757000D01*
X123002524Y-87726762D01*
X123153714Y-87726762D01*
X123244429Y-87757000D01*
X123879429Y-88301286D02*
X123849191Y-88331524D01*
X123758476Y-88361762D01*
X123698000Y-88361762D01*
X123607286Y-88331524D01*
X123546810Y-88271048D01*
X123516571Y-88210571D01*
X123486333Y-88089619D01*
X123486333Y-87998905D01*
X123516571Y-87877952D01*
X123546810Y-87817476D01*
X123607286Y-87757000D01*
X123698000Y-87726762D01*
X123758476Y-87726762D01*
X123849191Y-87757000D01*
X123879429Y-87787238D01*
X124151571Y-88361762D02*
X124151571Y-87726762D01*
X124514429Y-88361762D02*
X124242286Y-87998905D01*
X124514429Y-87726762D02*
X124151571Y-88089619D01*
X122700143Y-87218762D02*
X122700143Y-86583762D01*
X122911810Y-87037333D01*
X123123477Y-86583762D01*
X123123477Y-87218762D01*
X123425857Y-87218762D02*
X123425857Y-86583762D01*
X123698000Y-87188524D02*
X123788715Y-87218762D01*
X123939905Y-87218762D01*
X124000381Y-87188524D01*
X124030619Y-87158286D01*
X124060858Y-87097810D01*
X124060858Y-87037333D01*
X124030619Y-86976857D01*
X124000381Y-86946619D01*
X123939905Y-86916381D01*
X123818953Y-86886143D01*
X123758477Y-86855905D01*
X123728238Y-86825667D01*
X123698000Y-86765190D01*
X123698000Y-86704714D01*
X123728238Y-86644238D01*
X123758477Y-86614000D01*
X123818953Y-86583762D01*
X123970143Y-86583762D01*
X124060858Y-86614000D01*
X124453953Y-86583762D02*
X124574905Y-86583762D01*
X124635381Y-86614000D01*
X124695858Y-86674476D01*
X124726096Y-86795429D01*
X124726096Y-87007095D01*
X124695858Y-87128048D01*
X124635381Y-87188524D01*
X124574905Y-87218762D01*
X124453953Y-87218762D01*
X124393477Y-87188524D01*
X124333000Y-87128048D01*
X124302762Y-87007095D01*
X124302762Y-86795429D01*
X124333000Y-86674476D01*
X124393477Y-86614000D01*
X124453953Y-86583762D01*
X125754191Y-89090500D02*
X125693714Y-89060262D01*
X125603000Y-89060262D01*
X125512286Y-89090500D01*
X125451810Y-89150976D01*
X125421571Y-89211452D01*
X125391333Y-89332405D01*
X125391333Y-89423119D01*
X125421571Y-89544071D01*
X125451810Y-89604548D01*
X125512286Y-89665024D01*
X125603000Y-89695262D01*
X125663476Y-89695262D01*
X125754191Y-89665024D01*
X125784429Y-89634786D01*
X125784429Y-89423119D01*
X125663476Y-89423119D01*
X126056571Y-89695262D02*
X126056571Y-89060262D01*
X126419429Y-89695262D01*
X126419429Y-89060262D01*
X126721809Y-89695262D02*
X126721809Y-89060262D01*
X126873000Y-89060262D01*
X126963714Y-89090500D01*
X127024190Y-89150976D01*
X127054429Y-89211452D01*
X127084667Y-89332405D01*
X127084667Y-89423119D01*
X127054429Y-89544071D01*
X127024190Y-89604548D01*
X126963714Y-89665024D01*
X126873000Y-89695262D01*
X126721809Y-89695262D01*
X125240143Y-88361762D02*
X125240143Y-87726762D01*
X125451810Y-88180333D01*
X125663477Y-87726762D01*
X125663477Y-88361762D01*
X126086810Y-87726762D02*
X126207762Y-87726762D01*
X126268238Y-87757000D01*
X126328715Y-87817476D01*
X126358953Y-87938429D01*
X126358953Y-88150095D01*
X126328715Y-88271048D01*
X126268238Y-88331524D01*
X126207762Y-88361762D01*
X126086810Y-88361762D01*
X126026334Y-88331524D01*
X125965857Y-88271048D01*
X125935619Y-88150095D01*
X125935619Y-87938429D01*
X125965857Y-87817476D01*
X126026334Y-87757000D01*
X126086810Y-87726762D01*
X126600857Y-88331524D02*
X126691572Y-88361762D01*
X126842762Y-88361762D01*
X126903238Y-88331524D01*
X126933476Y-88301286D01*
X126963715Y-88240810D01*
X126963715Y-88180333D01*
X126933476Y-88119857D01*
X126903238Y-88089619D01*
X126842762Y-88059381D01*
X126721810Y-88029143D01*
X126661334Y-87998905D01*
X126631095Y-87968667D01*
X126600857Y-87908190D01*
X126600857Y-87847714D01*
X126631095Y-87787238D01*
X126661334Y-87757000D01*
X126721810Y-87726762D01*
X126873000Y-87726762D01*
X126963715Y-87757000D01*
X127235857Y-88361762D02*
X127235857Y-87726762D01*
X125421571Y-86976857D02*
X125905381Y-86976857D01*
X125663476Y-87218762D02*
X125663476Y-86734952D01*
X126510142Y-86583762D02*
X126207761Y-86583762D01*
X126177523Y-86886143D01*
X126207761Y-86855905D01*
X126268238Y-86825667D01*
X126419428Y-86825667D01*
X126479904Y-86855905D01*
X126510142Y-86886143D01*
X126540381Y-86946619D01*
X126540381Y-87097810D01*
X126510142Y-87158286D01*
X126479904Y-87188524D01*
X126419428Y-87218762D01*
X126268238Y-87218762D01*
X126207761Y-87188524D01*
X126177523Y-87158286D01*
X126721809Y-86583762D02*
X126933476Y-87218762D01*
X127145143Y-86583762D01*
D11*
X106661857Y-88065429D02*
X106637667Y-88089619D01*
X106565095Y-88113810D01*
X106516714Y-88113810D01*
X106444143Y-88089619D01*
X106395762Y-88041238D01*
X106371571Y-87992857D01*
X106347381Y-87896095D01*
X106347381Y-87823524D01*
X106371571Y-87726762D01*
X106395762Y-87678381D01*
X106444143Y-87630000D01*
X106516714Y-87605810D01*
X106565095Y-87605810D01*
X106637667Y-87630000D01*
X106661857Y-87654190D01*
X107145667Y-88113810D02*
X106855381Y-88113810D01*
X107000524Y-88113810D02*
X107000524Y-87605810D01*
X106952143Y-87678381D01*
X106903762Y-87726762D01*
X106855381Y-87750952D01*
X107363381Y-87920286D02*
X107750429Y-87920286D01*
X106147810Y-95395143D02*
X106147810Y-95491905D01*
X106172000Y-95540286D01*
X106196190Y-95564477D01*
X106268762Y-95612858D01*
X106365524Y-95637048D01*
X106559048Y-95637048D01*
X106607429Y-95612858D01*
X106631619Y-95588667D01*
X106655810Y-95540286D01*
X106655810Y-95443524D01*
X106631619Y-95395143D01*
X106607429Y-95370953D01*
X106559048Y-95346762D01*
X106438095Y-95346762D01*
X106389714Y-95370953D01*
X106365524Y-95395143D01*
X106341333Y-95443524D01*
X106341333Y-95540286D01*
X106365524Y-95588667D01*
X106389714Y-95612858D01*
X106438095Y-95637048D01*
X106365524Y-95056476D02*
X106341333Y-95104857D01*
X106317143Y-95129048D01*
X106268762Y-95153238D01*
X106244571Y-95153238D01*
X106196190Y-95129048D01*
X106172000Y-95104857D01*
X106147810Y-95056476D01*
X106147810Y-94959714D01*
X106172000Y-94911333D01*
X106196190Y-94887143D01*
X106244571Y-94862952D01*
X106268762Y-94862952D01*
X106317143Y-94887143D01*
X106341333Y-94911333D01*
X106365524Y-94959714D01*
X106365524Y-95056476D01*
X106389714Y-95104857D01*
X106413905Y-95129048D01*
X106462286Y-95153238D01*
X106559048Y-95153238D01*
X106607429Y-95129048D01*
X106631619Y-95104857D01*
X106655810Y-95056476D01*
X106655810Y-94959714D01*
X106631619Y-94911333D01*
X106607429Y-94887143D01*
X106559048Y-94862952D01*
X106462286Y-94862952D01*
X106413905Y-94887143D01*
X106389714Y-94911333D01*
X106365524Y-94959714D01*
X106655810Y-94354952D02*
X106413905Y-94524285D01*
X106655810Y-94645238D02*
X106147810Y-94645238D01*
X106147810Y-94451714D01*
X106172000Y-94403333D01*
X106196190Y-94379142D01*
X106244571Y-94354952D01*
X106317143Y-94354952D01*
X106365524Y-94379142D01*
X106389714Y-94403333D01*
X106413905Y-94451714D01*
X106413905Y-94645238D01*
X106147810Y-93617143D02*
X106147810Y-93713905D01*
X106172000Y-93762286D01*
X106196190Y-93786477D01*
X106268762Y-93834858D01*
X106365524Y-93859048D01*
X106559048Y-93859048D01*
X106607429Y-93834858D01*
X106631619Y-93810667D01*
X106655810Y-93762286D01*
X106655810Y-93665524D01*
X106631619Y-93617143D01*
X106607429Y-93592953D01*
X106559048Y-93568762D01*
X106438095Y-93568762D01*
X106389714Y-93592953D01*
X106365524Y-93617143D01*
X106341333Y-93665524D01*
X106341333Y-93762286D01*
X106365524Y-93810667D01*
X106389714Y-93834858D01*
X106438095Y-93859048D01*
X106365524Y-93278476D02*
X106341333Y-93326857D01*
X106317143Y-93351048D01*
X106268762Y-93375238D01*
X106244571Y-93375238D01*
X106196190Y-93351048D01*
X106172000Y-93326857D01*
X106147810Y-93278476D01*
X106147810Y-93181714D01*
X106172000Y-93133333D01*
X106196190Y-93109143D01*
X106244571Y-93084952D01*
X106268762Y-93084952D01*
X106317143Y-93109143D01*
X106341333Y-93133333D01*
X106365524Y-93181714D01*
X106365524Y-93278476D01*
X106389714Y-93326857D01*
X106413905Y-93351048D01*
X106462286Y-93375238D01*
X106559048Y-93375238D01*
X106607429Y-93351048D01*
X106631619Y-93326857D01*
X106655810Y-93278476D01*
X106655810Y-93181714D01*
X106631619Y-93133333D01*
X106607429Y-93109143D01*
X106559048Y-93084952D01*
X106462286Y-93084952D01*
X106413905Y-93109143D01*
X106389714Y-93133333D01*
X106365524Y-93181714D01*
X106655810Y-92576952D02*
X106413905Y-92746285D01*
X106655810Y-92867238D02*
X106147810Y-92867238D01*
X106147810Y-92673714D01*
X106172000Y-92625333D01*
X106196190Y-92601142D01*
X106244571Y-92576952D01*
X106317143Y-92576952D01*
X106365524Y-92601142D01*
X106389714Y-92625333D01*
X106413905Y-92673714D01*
X106413905Y-92867238D01*
X111385047Y-102093486D02*
X111772095Y-102093486D01*
X112691333Y-102238629D02*
X112667143Y-102262819D01*
X112594571Y-102287010D01*
X112546190Y-102287010D01*
X112473619Y-102262819D01*
X112425238Y-102214438D01*
X112401047Y-102166057D01*
X112376857Y-102069295D01*
X112376857Y-101996724D01*
X112401047Y-101899962D01*
X112425238Y-101851581D01*
X112473619Y-101803200D01*
X112546190Y-101779010D01*
X112594571Y-101779010D01*
X112667143Y-101803200D01*
X112691333Y-101827390D01*
X112884857Y-101827390D02*
X112909047Y-101803200D01*
X112957428Y-101779010D01*
X113078381Y-101779010D01*
X113126762Y-101803200D01*
X113150952Y-101827390D01*
X113175143Y-101875771D01*
X113175143Y-101924152D01*
X113150952Y-101996724D01*
X112860666Y-102287010D01*
X113175143Y-102287010D01*
X113779905Y-102093486D02*
X114166953Y-102093486D01*
X113973429Y-102287010D02*
X113973429Y-101899962D01*
X115062000Y-101827390D02*
X115086190Y-101803200D01*
X115134571Y-101779010D01*
X115255524Y-101779010D01*
X115303905Y-101803200D01*
X115328095Y-101827390D01*
X115352286Y-101875771D01*
X115352286Y-101924152D01*
X115328095Y-101996724D01*
X115037809Y-102287010D01*
X115352286Y-102287010D01*
X115570000Y-102238629D02*
X115594191Y-102262819D01*
X115570000Y-102287010D01*
X115545810Y-102262819D01*
X115570000Y-102238629D01*
X115570000Y-102287010D01*
X115787715Y-101827390D02*
X115811905Y-101803200D01*
X115860286Y-101779010D01*
X115981239Y-101779010D01*
X116029620Y-101803200D01*
X116053810Y-101827390D01*
X116078001Y-101875771D01*
X116078001Y-101924152D01*
X116053810Y-101996724D01*
X115763524Y-102287010D01*
X116078001Y-102287010D01*
X116295715Y-102287010D02*
X116295715Y-101779010D01*
X116586001Y-102287010D02*
X116368287Y-101996724D01*
X116586001Y-101779010D02*
X116295715Y-102069295D01*
X127187476Y-101991886D02*
X127574524Y-101991886D01*
X124901476Y-101991886D02*
X125288524Y-101991886D01*
X125095000Y-102185410D02*
X125095000Y-101798362D01*
X122409856Y-101766310D02*
X122724333Y-101766310D01*
X122554999Y-101959833D01*
X122627571Y-101959833D01*
X122675952Y-101984024D01*
X122700142Y-102008214D01*
X122724333Y-102056595D01*
X122724333Y-102177548D01*
X122700142Y-102225929D01*
X122675952Y-102250119D01*
X122627571Y-102274310D01*
X122482428Y-102274310D01*
X122434047Y-102250119D01*
X122409856Y-102225929D01*
X122893666Y-101766310D02*
X123208143Y-101766310D01*
X123038809Y-101959833D01*
X123111381Y-101959833D01*
X123159762Y-101984024D01*
X123183952Y-102008214D01*
X123208143Y-102056595D01*
X123208143Y-102177548D01*
X123183952Y-102225929D01*
X123159762Y-102250119D01*
X123111381Y-102274310D01*
X122966238Y-102274310D01*
X122917857Y-102250119D01*
X122893666Y-102225929D01*
X123522619Y-101766310D02*
X123571000Y-101766310D01*
X123619381Y-101790500D01*
X123643572Y-101814690D01*
X123667762Y-101863071D01*
X123691953Y-101959833D01*
X123691953Y-102080786D01*
X123667762Y-102177548D01*
X123643572Y-102225929D01*
X123619381Y-102250119D01*
X123571000Y-102274310D01*
X123522619Y-102274310D01*
X123474238Y-102250119D01*
X123450048Y-102225929D01*
X123425857Y-102177548D01*
X123401667Y-102080786D01*
X123401667Y-101959833D01*
X123425857Y-101863071D01*
X123450048Y-101814690D01*
X123474238Y-101790500D01*
X123522619Y-101766310D01*
X124199953Y-102274310D02*
X124030620Y-102032405D01*
X123909667Y-102274310D02*
X123909667Y-101766310D01*
X124103191Y-101766310D01*
X124151572Y-101790500D01*
X124175763Y-101814690D01*
X124199953Y-101863071D01*
X124199953Y-101935643D01*
X124175763Y-101984024D01*
X124151572Y-102008214D01*
X124103191Y-102032405D01*
X123909667Y-102032405D01*
X119723505Y-101948343D02*
X119723505Y-102287010D01*
X119602552Y-101754819D02*
X119481600Y-102117676D01*
X119796076Y-102117676D01*
X119989600Y-102238629D02*
X120013791Y-102262819D01*
X119989600Y-102287010D01*
X119965410Y-102262819D01*
X119989600Y-102238629D01*
X119989600Y-102287010D01*
X120183124Y-101779010D02*
X120521791Y-101779010D01*
X120304077Y-102287010D01*
X120715315Y-102287010D02*
X120715315Y-101779010D01*
X121005601Y-102287010D02*
X120787887Y-101996724D01*
X121005601Y-101779010D02*
X120715315Y-102069295D01*
D15*
X131445000Y-86106000D02*
X96774000Y-86106000D01*
X96774000Y-102870000D02*
X131445000Y-102870000D01*
X131445000Y-86106000D02*
X131445000Y-102870000D01*
X96774000Y-102870000D02*
X96774000Y-86106000D01*
D16*
X128397000Y-98044000D02*
X128397000Y-87884000D01*
X128397000Y-87884000D02*
X130937000Y-87884000D01*
X130937000Y-87884000D02*
X130937000Y-98044000D01*
X128397000Y-100584000D02*
X128397000Y-98044000D01*
X128397000Y-98044000D02*
X130937000Y-98044000D01*
X128397000Y-100584000D02*
X130937000Y-100584000D01*
X130937000Y-100584000D02*
X130937000Y-98044000D01*
D13*
X119126000Y-100203000D02*
X121412000Y-100203000D01*
X121412000Y-100203000D02*
X121412000Y-101473000D01*
X121412000Y-101473000D02*
X119126000Y-101473000D01*
X119126000Y-101473000D02*
X119126000Y-100203000D01*
X109347000Y-93853000D02*
X107061000Y-93853000D01*
X107061000Y-93853000D02*
X107061000Y-92583000D01*
X107061000Y-92583000D02*
X109347000Y-92583000D01*
X109347000Y-92583000D02*
X109347000Y-93853000D01*
X109347000Y-95631000D02*
X107061000Y-95631000D01*
X107061000Y-95631000D02*
X107061000Y-94361000D01*
X107061000Y-94361000D02*
X109347000Y-94361000D01*
X109347000Y-94361000D02*
X109347000Y-95631000D01*
D17*
X122174000Y-93726000D02*
X121094500Y-93726000D01*
X122110500Y-93281500D02*
X121031000Y-93281500D01*
X122237500Y-92837000D02*
X121094500Y-92837000D01*
X122174000Y-94234000D02*
X121031000Y-94234000D01*
X122237500Y-94742000D02*
X121031000Y-94742000D01*
X122237500Y-95250000D02*
X121031000Y-95250000D01*
X122237500Y-95758000D02*
X121031000Y-95758000D01*
D16*
X122301000Y-92583000D02*
X122174000Y-92583000D01*
X122174000Y-96012000D02*
X121920000Y-96012000D01*
X120777000Y-92583000D02*
X122301000Y-92583000D01*
X120777000Y-92583000D02*
X120777000Y-96012000D01*
X120777000Y-96012000D02*
X122301000Y-96012000D01*
X122428000Y-98044000D02*
X122428000Y-90424000D01*
X127508000Y-90424000D02*
X127508000Y-98044000D01*
X127508000Y-98044000D02*
X122428000Y-98044000D01*
X122428000Y-90424000D02*
X127508000Y-90424000D01*
D18*
X107645200Y-98209100D02*
X107454700Y-98044000D01*
X108813600Y-98221800D02*
X108953300Y-98374200D01*
X108013500Y-98552000D02*
X108140500Y-98552000D01*
X108140500Y-98425000D02*
X108140500Y-98615500D01*
X107950000Y-98615500D02*
X108140500Y-98615500D01*
X108204000Y-98679000D02*
X107950000Y-98679000D01*
X107886500Y-98742500D02*
X108140500Y-98742500D01*
X108140500Y-98806000D02*
X107823000Y-98806000D01*
X107759500Y-98869500D02*
X108140500Y-98869500D01*
X108140500Y-98996500D02*
X107696000Y-98996500D01*
X108204000Y-98933000D02*
X107696000Y-98933000D01*
X108204000Y-98298000D02*
X107569000Y-99060000D01*
X107569000Y-99060000D02*
X108204000Y-99060000D01*
X108204000Y-98933000D02*
X108458000Y-99060000D01*
X108839000Y-99060000D02*
X108204000Y-99060000D01*
X108204000Y-98806000D02*
X108331000Y-99060000D01*
X108458000Y-99060000D02*
X108204000Y-98679000D01*
X108204000Y-98552000D02*
X108585000Y-99060000D01*
X108712000Y-99060000D02*
X108204000Y-98425000D01*
X108204000Y-98298000D02*
X108839000Y-99060000D01*
X108204000Y-99060000D02*
X108204000Y-98298000D01*
X108204000Y-98171000D02*
X108204000Y-97663000D01*
X108204000Y-99060000D02*
X108204000Y-99441000D01*
X108803440Y-98211640D02*
X107652820Y-98211640D01*
X109397800Y-90004900D02*
X109588300Y-90170000D01*
X108229400Y-89992200D02*
X108089700Y-89839800D01*
X109029500Y-89662000D02*
X108902500Y-89662000D01*
X108902500Y-89789000D02*
X108902500Y-89598500D01*
X109093000Y-89598500D02*
X108902500Y-89598500D01*
X108839000Y-89535000D02*
X109093000Y-89535000D01*
X109156500Y-89471500D02*
X108902500Y-89471500D01*
X108902500Y-89408000D02*
X109220000Y-89408000D01*
X109283500Y-89344500D02*
X108902500Y-89344500D01*
X108902500Y-89217500D02*
X109347000Y-89217500D01*
X108839000Y-89281000D02*
X109347000Y-89281000D01*
X108839000Y-89916000D02*
X109474000Y-89154000D01*
X109474000Y-89154000D02*
X108839000Y-89154000D01*
X108839000Y-89281000D02*
X108585000Y-89154000D01*
X108204000Y-89154000D02*
X108839000Y-89154000D01*
X108839000Y-89408000D02*
X108712000Y-89154000D01*
X108585000Y-89154000D02*
X108839000Y-89535000D01*
X108839000Y-89662000D02*
X108458000Y-89154000D01*
X108331000Y-89154000D02*
X108839000Y-89789000D01*
X108839000Y-89916000D02*
X108204000Y-89154000D01*
X108839000Y-89154000D02*
X108839000Y-89916000D01*
X108839000Y-90043000D02*
X108839000Y-90551000D01*
X108839000Y-89154000D02*
X108839000Y-88773000D01*
X108239560Y-90002360D02*
X109390180Y-90002360D01*
D19*
X115570000Y-99568000D02*
X117983000Y-99568000D01*
X113792000Y-99568000D02*
X111379000Y-99568000D01*
X115570000Y-99568000D02*
G75*
G03X114681000Y-98679000I-889000J0D01*
G01*
X114681000Y-98679000D02*
G75*
G03X113792000Y-99568000I0J-889000D01*
G01*
X117094000Y-98679000D02*
G75*
G03X117094000Y-98679000I-254000J0D01*
G01*
X117983000Y-89408000D02*
X117983000Y-89535000D01*
X117983000Y-92075000D02*
X117983000Y-91821000D01*
X117983000Y-94615000D02*
X117983000Y-94361000D01*
X117983000Y-97155000D02*
X117983000Y-96901000D01*
X117983000Y-99568000D02*
X117983000Y-99441000D01*
X111379000Y-99568000D02*
X111379000Y-99441000D01*
X111379000Y-89408000D02*
X111379000Y-89535000D01*
X111379000Y-92075000D02*
X111379000Y-91821000D01*
X111379000Y-94615000D02*
X111379000Y-94361000D01*
X111379000Y-97155000D02*
X111379000Y-96901000D01*
X117983000Y-89408000D02*
X111379000Y-89408000D01*
D13*
X113334800Y-101244400D02*
X113334800Y-100431600D01*
X112217200Y-100457000D02*
X112217200Y-101244400D01*
X111963200Y-100431600D02*
X113588800Y-100431600D01*
X113588800Y-100431600D02*
X113588800Y-101244400D01*
X113588800Y-101244400D02*
X111963200Y-101244400D01*
X111963200Y-101244400D02*
X111963200Y-100431600D01*
X116967000Y-101473000D02*
X114681000Y-101473000D01*
X114681000Y-101473000D02*
X114681000Y-100203000D01*
X114681000Y-100203000D02*
X116967000Y-100203000D01*
X116967000Y-100203000D02*
X116967000Y-101473000D01*
D20*
X125788420Y-101287580D02*
X125788420Y-100388420D01*
X125788420Y-100388420D02*
X125389640Y-100388420D01*
X125389640Y-101287580D02*
X125389640Y-100388420D01*
X125788420Y-101287580D02*
X125389640Y-101287580D01*
X127086360Y-101287580D02*
X127086360Y-100388420D01*
X127086360Y-100388420D02*
X126687580Y-100388420D01*
X126687580Y-101287580D02*
X126687580Y-100388420D01*
X127086360Y-101287580D02*
X126687580Y-101287580D01*
X126238000Y-101287580D02*
X126238000Y-101137720D01*
X126238000Y-101137720D02*
X125938280Y-101137720D01*
X125938280Y-101287580D02*
X125938280Y-101137720D01*
X126238000Y-101287580D02*
X125938280Y-101287580D01*
X126238000Y-100538280D02*
X126238000Y-100388420D01*
X126238000Y-100388420D02*
X125938280Y-100388420D01*
X125938280Y-100538280D02*
X125938280Y-100388420D01*
X126238000Y-100538280D02*
X125938280Y-100538280D01*
X126238000Y-100987860D02*
X126238000Y-100688140D01*
X126238000Y-100688140D02*
X125938280Y-100688140D01*
X125938280Y-100987860D02*
X125938280Y-100688140D01*
X126238000Y-100987860D02*
X125938280Y-100987860D01*
D14*
X125788420Y-101236780D02*
X126687580Y-101236780D01*
X125788420Y-100439220D02*
X126687580Y-100439220D01*
D13*
X124460000Y-101473000D02*
X122174000Y-101473000D01*
X122174000Y-101473000D02*
X122174000Y-100203000D01*
X122174000Y-100203000D02*
X124460000Y-100203000D01*
X124460000Y-100203000D02*
X124460000Y-101473000D01*
X107696000Y-90805000D02*
X106426000Y-90805000D01*
X107696000Y-89535000D02*
X106451400Y-89535000D01*
X107696000Y-89154000D02*
X107696000Y-91186000D01*
X107696000Y-91186000D02*
X106426000Y-91186000D01*
X106426000Y-91186000D02*
X106426000Y-89154000D01*
X106426000Y-89154000D02*
X107696000Y-89154000D01*
D19*
X97536000Y-98348800D02*
X105664000Y-98348800D01*
X97536000Y-90627200D02*
X105664000Y-90627200D01*
X97492820Y-90637360D02*
X97492820Y-98338640D01*
X105691940Y-98338640D02*
X105691940Y-90637360D01*
D11*
X107829047Y-101385310D02*
X107829047Y-100877310D01*
X107950000Y-100877310D01*
X108022571Y-100901500D01*
X108070952Y-100949881D01*
X108095143Y-100998262D01*
X108119333Y-101095024D01*
X108119333Y-101167595D01*
X108095143Y-101264357D01*
X108070952Y-101312738D01*
X108022571Y-101361119D01*
X107950000Y-101385310D01*
X107829047Y-101385310D01*
X108312857Y-100925690D02*
X108337047Y-100901500D01*
X108385428Y-100877310D01*
X108506381Y-100877310D01*
X108554762Y-100901500D01*
X108578952Y-100925690D01*
X108603143Y-100974071D01*
X108603143Y-101022452D01*
X108578952Y-101095024D01*
X108288666Y-101385310D01*
X108603143Y-101385310D01*
X108464047Y-87351810D02*
X108464047Y-86843810D01*
X108585000Y-86843810D01*
X108657571Y-86868000D01*
X108705952Y-86916381D01*
X108730143Y-86964762D01*
X108754333Y-87061524D01*
X108754333Y-87134095D01*
X108730143Y-87230857D01*
X108705952Y-87279238D01*
X108657571Y-87327619D01*
X108585000Y-87351810D01*
X108464047Y-87351810D01*
X109238143Y-87351810D02*
X108947857Y-87351810D01*
X109093000Y-87351810D02*
X109093000Y-86843810D01*
X109044619Y-86916381D01*
X108996238Y-86964762D01*
X108947857Y-86988952D01*
D21*
X115370429Y-95975714D02*
X113846429Y-95975714D01*
X115225286Y-94379143D02*
X115297857Y-94451714D01*
X115370429Y-94669428D01*
X115370429Y-94814571D01*
X115297857Y-95032286D01*
X115152714Y-95177428D01*
X115007571Y-95250000D01*
X114717286Y-95322571D01*
X114499571Y-95322571D01*
X114209286Y-95250000D01*
X114064143Y-95177428D01*
X113919000Y-95032286D01*
X113846429Y-94814571D01*
X113846429Y-94669428D01*
X113919000Y-94451714D01*
X113991571Y-94379143D01*
X115370429Y-92927714D02*
X115370429Y-93798571D01*
X115370429Y-93363143D02*
X113846429Y-93363143D01*
X114064143Y-93508286D01*
X114209286Y-93653428D01*
X114281857Y-93798571D01*
M02*
