M48
INCH,TZ
T1C0.025
T2C0.030
T3C0.040
%
G90
G05
T1
X4.3275Y-3.9425
X4.34Y-3.4675
X4.41Y-3.92
X4.65Y-3.97
T2
X4.365Y-3.57
X4.365Y-3.67
X4.365Y-3.77
X4.365Y-3.87
X4.665Y-3.57
X4.665Y-3.67
X4.665Y-3.77
X4.665Y-3.87
T3
X3.9334Y-3.544
X3.9334Y-3.8955
X4.112Y-3.544
X4.112Y-3.8955
X4.87Y-3.61
X4.87Y-3.71
X4.87Y-3.81
X4.97Y-3.61
X4.97Y-3.71
X4.97Y-3.81
X5.105Y-3.51
X5.105Y-3.61
X5.105Y-3.71
X5.105Y-3.81
X5.105Y-3.91
T0
M30
