G04 #@! TF.FileFunction,Copper,L1,Top,Signal*
%FSLAX46Y46*%
G04 Gerber Fmt 4.6, Leading zero omitted, Abs format (unit mm)*
G04 Created by KiCad (PCBNEW 4.0.7) date Tue May  8 00:57:31 2018*
%MOMM*%
%LPD*%
G01*
G04 APERTURE LIST*
%ADD10C,0.150000*%
%ADD11C,0.025400*%
%ADD12R,2.032000X1.727200*%
%ADD13O,2.032000X1.727200*%
%ADD14R,0.635000X1.143000*%
%ADD15R,1.524000X1.524000*%
%ADD16C,1.524000*%
%ADD17R,0.850900X0.850900*%
%ADD18R,0.899160X1.000760*%
%ADD19R,0.797560X0.797560*%
%ADD20R,1.498600X1.300480*%
%ADD21R,2.301240X0.500380*%
%ADD22R,2.499360X1.998980*%
%ADD23C,1.778000*%
%ADD24C,0.889000*%
%ADD25C,0.381000*%
%ADD26C,0.203200*%
%ADD27C,0.254000*%
G04 APERTURE END LIST*
D10*
D11*
X131445000Y-86106000D02*
X96774000Y-86106000D01*
X96774000Y-102870000D02*
X131445000Y-102870000D01*
X131445000Y-86106000D02*
X131445000Y-102870000D01*
X96774000Y-102870000D02*
X96774000Y-86106000D01*
D12*
X129667000Y-99314000D03*
D13*
X129667000Y-96774000D03*
X129667000Y-94234000D03*
X129667000Y-91694000D03*
X129667000Y-89154000D03*
D14*
X119507000Y-100838000D03*
X121031000Y-100838000D03*
X108966000Y-93218000D03*
X107442000Y-93218000D03*
X108966000Y-94996000D03*
X107442000Y-94996000D03*
D15*
X123698000Y-91694000D03*
D16*
X126238000Y-91694000D03*
X123698000Y-94234000D03*
X126238000Y-94234000D03*
X123698000Y-96774000D03*
X126238000Y-96774000D03*
D17*
X108204000Y-100139500D03*
X108204000Y-96789240D03*
X108839000Y-88074500D03*
X108839000Y-91424760D03*
D16*
X118491000Y-98298000D03*
X118491000Y-95758000D03*
X118491000Y-93218000D03*
X118491000Y-90678000D03*
X110871000Y-90678000D03*
X110871000Y-93218000D03*
X110871000Y-95758000D03*
X110871000Y-98298000D03*
D18*
X113527840Y-100838000D03*
X112024160Y-100838000D03*
D14*
X116586000Y-100838000D03*
X115062000Y-100838000D03*
D19*
X126987300Y-100838000D03*
X125488700Y-100838000D03*
D14*
X124079000Y-100838000D03*
X122555000Y-100838000D03*
D20*
X107061000Y-91122500D03*
X107061000Y-89217500D03*
D21*
X104541320Y-92887800D03*
X104541320Y-93687900D03*
X104541320Y-94488000D03*
X104541320Y-95288100D03*
X104541320Y-96088200D03*
D22*
X104442260Y-90037920D03*
X99908300Y-90037920D03*
X104442260Y-98938080D03*
X99908300Y-98938080D03*
D23*
X99908300Y-90017600D03*
X104444800Y-90017600D03*
X99908300Y-98945700D03*
X104444800Y-98945700D03*
D24*
X109918500Y-100139500D03*
X112014000Y-99568000D03*
X110236000Y-88074500D03*
X118110000Y-100838000D03*
D25*
X122555000Y-100838000D02*
X121031000Y-100838000D01*
X107442000Y-86995000D02*
X110744000Y-86995000D01*
X110744000Y-86995000D02*
X111823500Y-88074500D01*
X111823500Y-88074500D02*
X123952000Y-88074500D01*
X123952000Y-88074500D02*
X126238000Y-90360500D01*
X126238000Y-90360500D02*
X126238000Y-91694000D01*
X103251000Y-86995000D02*
X102108000Y-88138000D01*
X107442000Y-86995000D02*
X107315000Y-86995000D01*
X107315000Y-86995000D02*
X103251000Y-86995000D01*
X102108000Y-93726000D02*
X102108000Y-88138000D01*
X104541320Y-92887800D02*
X106121200Y-92887800D01*
X107061000Y-91948000D02*
X107061000Y-91122500D01*
X106121200Y-92887800D02*
X107061000Y-91948000D01*
X104541320Y-92887800D02*
X102946200Y-92887800D01*
X102108000Y-93726000D02*
X102946200Y-92887800D01*
X110871000Y-98298000D02*
X112522000Y-98298000D01*
X113527840Y-99303840D02*
X113527840Y-100838000D01*
X112522000Y-98298000D02*
X113527840Y-99303840D01*
X113527840Y-100838000D02*
X115062000Y-100838000D01*
X121666000Y-102108000D02*
X121335800Y-102108000D01*
X129667000Y-100965000D02*
X128524000Y-102108000D01*
X128524000Y-102108000D02*
X121666000Y-102108000D01*
X121335800Y-102108000D02*
X120726200Y-102108000D01*
X129667000Y-99314000D02*
X129667000Y-100965000D01*
X121031000Y-101803200D02*
X120726200Y-102108000D01*
X121031000Y-100838000D02*
X121031000Y-101803200D01*
X121031000Y-101803200D02*
X121335800Y-102108000D01*
X104394000Y-102108000D02*
X102108000Y-99822000D01*
X110210600Y-102108000D02*
X104394000Y-102108000D01*
X102108000Y-99822000D02*
X102108000Y-93726000D01*
X111506000Y-102108000D02*
X111353600Y-102108000D01*
X111353600Y-102108000D02*
X110871000Y-102108000D01*
X110871000Y-102108000D02*
X110642400Y-102108000D01*
X110642400Y-102108000D02*
X110210600Y-102108000D01*
X120396000Y-102108000D02*
X111506000Y-102108000D01*
X120726200Y-102108000D02*
X120396000Y-102108000D01*
X110871000Y-101447600D02*
X110210600Y-102108000D01*
X110871000Y-98298000D02*
X110871000Y-101447600D01*
X110871000Y-101473000D02*
X111506000Y-102108000D01*
X110871000Y-98298000D02*
X110871000Y-101473000D01*
X110871000Y-98298000D02*
X110871000Y-102108000D01*
D26*
X104541320Y-95288100D02*
X104541320Y-96088200D01*
D25*
X104541320Y-96088200D02*
X106502200Y-96088200D01*
X107251500Y-100139500D02*
X108204000Y-100139500D01*
X106934000Y-99822000D02*
X107251500Y-100139500D01*
X106934000Y-96520000D02*
X106934000Y-99822000D01*
X106502200Y-96088200D02*
X106934000Y-96520000D01*
X126238000Y-96774000D02*
X126238000Y-99060000D01*
X126987300Y-99809300D02*
X126987300Y-100838000D01*
X126238000Y-99060000D02*
X126987300Y-99809300D01*
X112024160Y-100838000D02*
X112024160Y-99578160D01*
X109918500Y-100139500D02*
X108204000Y-100139500D01*
D27*
X112024160Y-99578160D02*
X112014000Y-99568000D01*
D25*
X108839000Y-88074500D02*
X110236000Y-88074500D01*
X108839000Y-88074500D02*
X107378500Y-88074500D01*
X107378500Y-88074500D02*
X107061000Y-88392000D01*
X107061000Y-88392000D02*
X107061000Y-89217500D01*
X125488700Y-100838000D02*
X124079000Y-100838000D01*
D26*
X106210100Y-93687900D02*
X106680000Y-93218000D01*
X104541320Y-93687900D02*
X106210100Y-93687900D01*
X106680000Y-93218000D02*
X107442000Y-93218000D01*
X106680000Y-94996000D02*
X107442000Y-94996000D01*
X106172000Y-94488000D02*
X106680000Y-94996000D01*
X104541320Y-94488000D02*
X106172000Y-94488000D01*
D25*
X116586000Y-100838000D02*
X118110000Y-100838000D01*
X123698000Y-90360500D02*
X123698000Y-91694000D01*
X122237500Y-88900000D02*
X123698000Y-90360500D01*
D26*
X108839000Y-91424760D02*
X108839000Y-92075000D01*
D25*
X108839000Y-91424760D02*
X108839000Y-90678000D01*
X110617000Y-88900000D02*
X108839000Y-90678000D01*
X118110000Y-88900000D02*
X110617000Y-88900000D01*
X120396000Y-88900000D02*
X122237500Y-88900000D01*
X120396000Y-88900000D02*
X118110000Y-88900000D01*
D26*
X108966000Y-92202000D02*
X108966000Y-93218000D01*
D25*
X110871000Y-93218000D02*
X108966000Y-93218000D01*
D26*
X108839000Y-92075000D02*
X108966000Y-92202000D01*
X108458000Y-94996000D02*
X108966000Y-94996000D01*
D25*
X108966000Y-94996000D02*
X110109000Y-94996000D01*
D26*
X108204000Y-96789240D02*
X108204000Y-95250000D01*
D25*
X108204000Y-96789240D02*
X109743240Y-96789240D01*
X109743240Y-96789240D02*
X109982000Y-97028000D01*
D26*
X108204000Y-95250000D02*
X108458000Y-94996000D01*
D25*
X109982000Y-97028000D02*
X114554000Y-97028000D01*
X110109000Y-94996000D02*
X110871000Y-95758000D01*
X122301000Y-94234000D02*
X123698000Y-94234000D01*
X122047000Y-94488000D02*
X122301000Y-94234000D01*
X117094000Y-94488000D02*
X122047000Y-94488000D01*
X114554000Y-97028000D02*
X117094000Y-94488000D01*
X126238000Y-94234000D02*
X127563880Y-94234000D01*
X128330960Y-96774000D02*
X129667000Y-96774000D01*
X127924560Y-96367600D02*
X128330960Y-96774000D01*
X127924560Y-94594680D02*
X127924560Y-96367600D01*
X127563880Y-94234000D02*
X127924560Y-94594680D01*
X126238000Y-94234000D02*
X124968000Y-92964000D01*
X112522000Y-90678000D02*
X110871000Y-90678000D01*
X113792000Y-91948000D02*
X112522000Y-90678000D01*
X119507000Y-91948000D02*
X113792000Y-91948000D01*
X120523000Y-92964000D02*
X119507000Y-91948000D01*
X124968000Y-92964000D02*
X120523000Y-92964000D01*
X123698000Y-96774000D02*
X122174000Y-98298000D01*
X122174000Y-98298000D02*
X118491000Y-98298000D01*
X119507000Y-99314000D02*
X118491000Y-98298000D01*
X119507000Y-100838000D02*
X119507000Y-99314000D01*
D27*
G36*
X130797300Y-102222300D02*
X129577134Y-102222300D01*
X130250717Y-101548717D01*
X130299133Y-101489774D01*
X130348131Y-101431380D01*
X130350223Y-101427575D01*
X130352977Y-101424222D01*
X130389009Y-101357023D01*
X130425746Y-101290199D01*
X130427058Y-101286063D01*
X130429110Y-101282236D01*
X130451407Y-101209305D01*
X130474461Y-101136631D01*
X130474945Y-101132317D01*
X130476214Y-101128166D01*
X130483918Y-101052324D01*
X130492420Y-100976526D01*
X130492479Y-100968041D01*
X130492495Y-100967882D01*
X130492481Y-100967734D01*
X130492500Y-100965000D01*
X130492500Y-100815672D01*
X130683000Y-100815672D01*
X130784121Y-100807608D01*
X130797300Y-100803527D01*
X130797300Y-102222300D01*
X130797300Y-102222300D01*
G37*
X130797300Y-102222300D02*
X129577134Y-102222300D01*
X130250717Y-101548717D01*
X130299133Y-101489774D01*
X130348131Y-101431380D01*
X130350223Y-101427575D01*
X130352977Y-101424222D01*
X130389009Y-101357023D01*
X130425746Y-101290199D01*
X130427058Y-101286063D01*
X130429110Y-101282236D01*
X130451407Y-101209305D01*
X130474461Y-101136631D01*
X130474945Y-101132317D01*
X130476214Y-101128166D01*
X130483918Y-101052324D01*
X130492420Y-100976526D01*
X130492479Y-100968041D01*
X130492495Y-100967882D01*
X130492481Y-100967734D01*
X130492500Y-100965000D01*
X130492500Y-100815672D01*
X130683000Y-100815672D01*
X130784121Y-100807608D01*
X130797300Y-100803527D01*
X130797300Y-102222300D01*
G36*
X101524283Y-87554283D02*
X101475867Y-87613226D01*
X101426869Y-87671620D01*
X101424777Y-87675425D01*
X101422023Y-87678778D01*
X101385991Y-87745977D01*
X101349254Y-87812801D01*
X101347942Y-87816937D01*
X101345890Y-87820764D01*
X101323593Y-87893695D01*
X101300539Y-87966369D01*
X101300055Y-87970683D01*
X101298786Y-87974834D01*
X101291078Y-88050716D01*
X101282580Y-88126474D01*
X101282521Y-88134950D01*
X101282504Y-88135119D01*
X101282519Y-88135277D01*
X101282500Y-88138000D01*
X101282500Y-88415758D01*
X101220522Y-88403430D01*
X101179597Y-88403430D01*
X101157980Y-88400358D01*
X98658620Y-88400358D01*
X98620098Y-88403430D01*
X98596078Y-88403430D01*
X98580004Y-88406627D01*
X98557499Y-88408422D01*
X98533286Y-88415920D01*
X98473397Y-88427833D01*
X98409936Y-88454119D01*
X98385986Y-88461536D01*
X98375757Y-88468277D01*
X98357835Y-88475700D01*
X98253831Y-88545193D01*
X98243781Y-88555243D01*
X98236061Y-88560330D01*
X98220868Y-88578156D01*
X98165383Y-88633641D01*
X98135641Y-88678153D01*
X98119595Y-88696980D01*
X98112408Y-88712924D01*
X98095890Y-88737645D01*
X98048023Y-88853207D01*
X98047115Y-88857772D01*
X98045810Y-88860667D01*
X98043986Y-88873502D01*
X98023620Y-88975888D01*
X98023620Y-89016813D01*
X98020548Y-89038430D01*
X98020548Y-91037410D01*
X98023620Y-91075932D01*
X98023620Y-91099952D01*
X98026817Y-91116026D01*
X98028612Y-91138531D01*
X98036110Y-91162744D01*
X98048023Y-91222633D01*
X98074309Y-91286094D01*
X98081726Y-91310044D01*
X98088467Y-91320273D01*
X98095890Y-91338195D01*
X98165383Y-91442199D01*
X98175433Y-91452249D01*
X98180520Y-91459969D01*
X98198346Y-91475162D01*
X98253831Y-91530647D01*
X98298343Y-91560389D01*
X98317170Y-91576435D01*
X98333114Y-91583622D01*
X98357835Y-91600140D01*
X98473397Y-91648007D01*
X98477962Y-91648915D01*
X98480857Y-91650220D01*
X98493692Y-91652044D01*
X98596078Y-91672410D01*
X98637003Y-91672410D01*
X98658620Y-91675482D01*
X101157980Y-91675482D01*
X101196502Y-91672410D01*
X101220522Y-91672410D01*
X101236596Y-91669213D01*
X101259101Y-91667418D01*
X101282500Y-91660172D01*
X101282500Y-97315918D01*
X101220522Y-97303590D01*
X101179597Y-97303590D01*
X101157980Y-97300518D01*
X98658620Y-97300518D01*
X98620098Y-97303590D01*
X98596078Y-97303590D01*
X98580004Y-97306787D01*
X98557499Y-97308582D01*
X98533286Y-97316080D01*
X98473397Y-97327993D01*
X98409936Y-97354279D01*
X98385986Y-97361696D01*
X98375757Y-97368437D01*
X98357835Y-97375860D01*
X98253831Y-97445353D01*
X98243781Y-97455403D01*
X98236061Y-97460490D01*
X98220868Y-97478316D01*
X98165383Y-97533801D01*
X98135641Y-97578313D01*
X98119595Y-97597140D01*
X98112408Y-97613084D01*
X98095890Y-97637805D01*
X98048023Y-97753367D01*
X98047115Y-97757932D01*
X98045810Y-97760827D01*
X98043986Y-97773662D01*
X98023620Y-97876048D01*
X98023620Y-97916973D01*
X98020548Y-97938590D01*
X98020548Y-99937570D01*
X98023620Y-99976092D01*
X98023620Y-100000112D01*
X98026817Y-100016186D01*
X98028612Y-100038691D01*
X98036110Y-100062904D01*
X98048023Y-100122793D01*
X98074309Y-100186254D01*
X98081726Y-100210204D01*
X98088467Y-100220433D01*
X98095890Y-100238355D01*
X98165383Y-100342359D01*
X98175433Y-100352409D01*
X98180520Y-100360129D01*
X98198346Y-100375322D01*
X98253831Y-100430807D01*
X98298343Y-100460549D01*
X98317170Y-100476595D01*
X98333114Y-100483782D01*
X98357835Y-100500300D01*
X98473397Y-100548167D01*
X98477962Y-100549075D01*
X98480857Y-100550380D01*
X98493692Y-100552204D01*
X98596078Y-100572570D01*
X98637003Y-100572570D01*
X98658620Y-100575642D01*
X101157980Y-100575642D01*
X101196502Y-100572570D01*
X101220522Y-100572570D01*
X101236596Y-100569373D01*
X101259101Y-100567578D01*
X101283314Y-100560080D01*
X101343203Y-100548167D01*
X101406664Y-100521881D01*
X101430614Y-100514464D01*
X101440843Y-100507723D01*
X101458765Y-100500300D01*
X101554739Y-100436173D01*
X103340866Y-102222300D01*
X97421700Y-102222300D01*
X97421700Y-86753700D01*
X102324866Y-86753700D01*
X101524283Y-87554283D01*
X101524283Y-87554283D01*
G37*
X101524283Y-87554283D02*
X101475867Y-87613226D01*
X101426869Y-87671620D01*
X101424777Y-87675425D01*
X101422023Y-87678778D01*
X101385991Y-87745977D01*
X101349254Y-87812801D01*
X101347942Y-87816937D01*
X101345890Y-87820764D01*
X101323593Y-87893695D01*
X101300539Y-87966369D01*
X101300055Y-87970683D01*
X101298786Y-87974834D01*
X101291078Y-88050716D01*
X101282580Y-88126474D01*
X101282521Y-88134950D01*
X101282504Y-88135119D01*
X101282519Y-88135277D01*
X101282500Y-88138000D01*
X101282500Y-88415758D01*
X101220522Y-88403430D01*
X101179597Y-88403430D01*
X101157980Y-88400358D01*
X98658620Y-88400358D01*
X98620098Y-88403430D01*
X98596078Y-88403430D01*
X98580004Y-88406627D01*
X98557499Y-88408422D01*
X98533286Y-88415920D01*
X98473397Y-88427833D01*
X98409936Y-88454119D01*
X98385986Y-88461536D01*
X98375757Y-88468277D01*
X98357835Y-88475700D01*
X98253831Y-88545193D01*
X98243781Y-88555243D01*
X98236061Y-88560330D01*
X98220868Y-88578156D01*
X98165383Y-88633641D01*
X98135641Y-88678153D01*
X98119595Y-88696980D01*
X98112408Y-88712924D01*
X98095890Y-88737645D01*
X98048023Y-88853207D01*
X98047115Y-88857772D01*
X98045810Y-88860667D01*
X98043986Y-88873502D01*
X98023620Y-88975888D01*
X98023620Y-89016813D01*
X98020548Y-89038430D01*
X98020548Y-91037410D01*
X98023620Y-91075932D01*
X98023620Y-91099952D01*
X98026817Y-91116026D01*
X98028612Y-91138531D01*
X98036110Y-91162744D01*
X98048023Y-91222633D01*
X98074309Y-91286094D01*
X98081726Y-91310044D01*
X98088467Y-91320273D01*
X98095890Y-91338195D01*
X98165383Y-91442199D01*
X98175433Y-91452249D01*
X98180520Y-91459969D01*
X98198346Y-91475162D01*
X98253831Y-91530647D01*
X98298343Y-91560389D01*
X98317170Y-91576435D01*
X98333114Y-91583622D01*
X98357835Y-91600140D01*
X98473397Y-91648007D01*
X98477962Y-91648915D01*
X98480857Y-91650220D01*
X98493692Y-91652044D01*
X98596078Y-91672410D01*
X98637003Y-91672410D01*
X98658620Y-91675482D01*
X101157980Y-91675482D01*
X101196502Y-91672410D01*
X101220522Y-91672410D01*
X101236596Y-91669213D01*
X101259101Y-91667418D01*
X101282500Y-91660172D01*
X101282500Y-97315918D01*
X101220522Y-97303590D01*
X101179597Y-97303590D01*
X101157980Y-97300518D01*
X98658620Y-97300518D01*
X98620098Y-97303590D01*
X98596078Y-97303590D01*
X98580004Y-97306787D01*
X98557499Y-97308582D01*
X98533286Y-97316080D01*
X98473397Y-97327993D01*
X98409936Y-97354279D01*
X98385986Y-97361696D01*
X98375757Y-97368437D01*
X98357835Y-97375860D01*
X98253831Y-97445353D01*
X98243781Y-97455403D01*
X98236061Y-97460490D01*
X98220868Y-97478316D01*
X98165383Y-97533801D01*
X98135641Y-97578313D01*
X98119595Y-97597140D01*
X98112408Y-97613084D01*
X98095890Y-97637805D01*
X98048023Y-97753367D01*
X98047115Y-97757932D01*
X98045810Y-97760827D01*
X98043986Y-97773662D01*
X98023620Y-97876048D01*
X98023620Y-97916973D01*
X98020548Y-97938590D01*
X98020548Y-99937570D01*
X98023620Y-99976092D01*
X98023620Y-100000112D01*
X98026817Y-100016186D01*
X98028612Y-100038691D01*
X98036110Y-100062904D01*
X98048023Y-100122793D01*
X98074309Y-100186254D01*
X98081726Y-100210204D01*
X98088467Y-100220433D01*
X98095890Y-100238355D01*
X98165383Y-100342359D01*
X98175433Y-100352409D01*
X98180520Y-100360129D01*
X98198346Y-100375322D01*
X98253831Y-100430807D01*
X98298343Y-100460549D01*
X98317170Y-100476595D01*
X98333114Y-100483782D01*
X98357835Y-100500300D01*
X98473397Y-100548167D01*
X98477962Y-100549075D01*
X98480857Y-100550380D01*
X98493692Y-100552204D01*
X98596078Y-100572570D01*
X98637003Y-100572570D01*
X98658620Y-100575642D01*
X101157980Y-100575642D01*
X101196502Y-100572570D01*
X101220522Y-100572570D01*
X101236596Y-100569373D01*
X101259101Y-100567578D01*
X101283314Y-100560080D01*
X101343203Y-100548167D01*
X101406664Y-100521881D01*
X101430614Y-100514464D01*
X101440843Y-100507723D01*
X101458765Y-100500300D01*
X101554739Y-100436173D01*
X103340866Y-102222300D01*
X97421700Y-102222300D01*
X97421700Y-86753700D01*
X102324866Y-86753700D01*
X101524283Y-87554283D01*
G36*
X127747243Y-97357716D02*
X127806156Y-97406108D01*
X127864580Y-97455131D01*
X127868385Y-97457223D01*
X127871738Y-97459977D01*
X127938937Y-97496009D01*
X128005761Y-97532746D01*
X128009897Y-97534058D01*
X128013724Y-97536110D01*
X128086614Y-97558394D01*
X128159329Y-97581461D01*
X128163648Y-97581945D01*
X128167794Y-97583213D01*
X128243586Y-97590912D01*
X128251165Y-97591762D01*
X128252637Y-97594578D01*
X128435903Y-97822515D01*
X128464780Y-97846745D01*
X128378366Y-97873506D01*
X128228441Y-97972300D01*
X128111975Y-98108950D01*
X128038190Y-98272637D01*
X128012928Y-98450400D01*
X128012928Y-100177600D01*
X128020992Y-100278721D01*
X128074106Y-100450234D01*
X128172900Y-100600159D01*
X128309550Y-100716625D01*
X128473237Y-100790410D01*
X128649156Y-100815410D01*
X128182066Y-101282500D01*
X128017655Y-101282500D01*
X128024152Y-101236780D01*
X128024152Y-100439220D01*
X128016088Y-100338099D01*
X127962974Y-100166586D01*
X127864180Y-100016661D01*
X127812800Y-99972870D01*
X127812800Y-99809300D01*
X127805357Y-99733397D01*
X127798713Y-99657448D01*
X127797501Y-99653277D01*
X127797078Y-99648960D01*
X127775040Y-99575966D01*
X127753765Y-99502736D01*
X127751768Y-99498884D01*
X127750513Y-99494726D01*
X127714702Y-99427376D01*
X127679622Y-99359700D01*
X127676914Y-99356307D01*
X127674876Y-99352475D01*
X127626680Y-99293381D01*
X127579110Y-99233790D01*
X127573157Y-99227754D01*
X127573051Y-99227624D01*
X127572931Y-99227525D01*
X127571016Y-99225583D01*
X127063500Y-98718066D01*
X127063500Y-97904762D01*
X127102240Y-97880177D01*
X127300639Y-97691245D01*
X127458561Y-97467375D01*
X127569993Y-97217095D01*
X127576774Y-97187248D01*
X127747243Y-97357716D01*
X127747243Y-97357716D01*
G37*
X127747243Y-97357716D02*
X127806156Y-97406108D01*
X127864580Y-97455131D01*
X127868385Y-97457223D01*
X127871738Y-97459977D01*
X127938937Y-97496009D01*
X128005761Y-97532746D01*
X128009897Y-97534058D01*
X128013724Y-97536110D01*
X128086614Y-97558394D01*
X128159329Y-97581461D01*
X128163648Y-97581945D01*
X128167794Y-97583213D01*
X128243586Y-97590912D01*
X128251165Y-97591762D01*
X128252637Y-97594578D01*
X128435903Y-97822515D01*
X128464780Y-97846745D01*
X128378366Y-97873506D01*
X128228441Y-97972300D01*
X128111975Y-98108950D01*
X128038190Y-98272637D01*
X128012928Y-98450400D01*
X128012928Y-100177600D01*
X128020992Y-100278721D01*
X128074106Y-100450234D01*
X128172900Y-100600159D01*
X128309550Y-100716625D01*
X128473237Y-100790410D01*
X128649156Y-100815410D01*
X128182066Y-101282500D01*
X128017655Y-101282500D01*
X128024152Y-101236780D01*
X128024152Y-100439220D01*
X128016088Y-100338099D01*
X127962974Y-100166586D01*
X127864180Y-100016661D01*
X127812800Y-99972870D01*
X127812800Y-99809300D01*
X127805357Y-99733397D01*
X127798713Y-99657448D01*
X127797501Y-99653277D01*
X127797078Y-99648960D01*
X127775040Y-99575966D01*
X127753765Y-99502736D01*
X127751768Y-99498884D01*
X127750513Y-99494726D01*
X127714702Y-99427376D01*
X127679622Y-99359700D01*
X127676914Y-99356307D01*
X127674876Y-99352475D01*
X127626680Y-99293381D01*
X127579110Y-99233790D01*
X127573157Y-99227754D01*
X127573051Y-99227624D01*
X127572931Y-99227525D01*
X127571016Y-99225583D01*
X127063500Y-98718066D01*
X127063500Y-97904762D01*
X127102240Y-97880177D01*
X127300639Y-97691245D01*
X127458561Y-97467375D01*
X127569993Y-97217095D01*
X127576774Y-97187248D01*
X127747243Y-97357716D01*
G36*
X106241677Y-100271600D02*
X106244388Y-100274996D01*
X106246424Y-100278825D01*
X106294597Y-100337892D01*
X106342190Y-100397510D01*
X106348147Y-100403551D01*
X106348249Y-100403676D01*
X106348365Y-100403772D01*
X106350283Y-100405717D01*
X106667783Y-100723217D01*
X106726726Y-100771633D01*
X106785120Y-100820631D01*
X106788925Y-100822723D01*
X106792278Y-100825477D01*
X106859512Y-100861528D01*
X106926301Y-100898246D01*
X106930433Y-100899557D01*
X106934264Y-100901611D01*
X107007228Y-100923918D01*
X107079869Y-100946961D01*
X107084184Y-100947445D01*
X107088335Y-100948714D01*
X107164211Y-100956422D01*
X107239974Y-100964920D01*
X107248450Y-100964979D01*
X107248619Y-100964996D01*
X107248777Y-100964981D01*
X107251500Y-100965000D01*
X107285618Y-100965000D01*
X107300450Y-100987509D01*
X107437100Y-101103975D01*
X107600787Y-101177760D01*
X107778550Y-101203022D01*
X108629450Y-101203022D01*
X108730571Y-101194958D01*
X108902084Y-101141844D01*
X109052009Y-101043050D01*
X109118531Y-100965000D01*
X109214930Y-100965000D01*
X109215469Y-100965558D01*
X109389307Y-101086379D01*
X109583302Y-101171133D01*
X109790064Y-101216593D01*
X109931609Y-101219558D01*
X109868666Y-101282500D01*
X104735934Y-101282500D01*
X104029076Y-100575642D01*
X105691940Y-100575642D01*
X105730462Y-100572570D01*
X105754482Y-100572570D01*
X105770556Y-100569373D01*
X105793061Y-100567578D01*
X105817274Y-100560080D01*
X105877163Y-100548167D01*
X105940624Y-100521881D01*
X105964574Y-100514464D01*
X105974803Y-100507723D01*
X105992725Y-100500300D01*
X106096729Y-100430807D01*
X106106779Y-100420757D01*
X106114499Y-100415670D01*
X106129692Y-100397844D01*
X106185177Y-100342359D01*
X106214919Y-100297847D01*
X106230965Y-100279020D01*
X106237736Y-100263998D01*
X106241677Y-100271600D01*
X106241677Y-100271600D01*
G37*
X106241677Y-100271600D02*
X106244388Y-100274996D01*
X106246424Y-100278825D01*
X106294597Y-100337892D01*
X106342190Y-100397510D01*
X106348147Y-100403551D01*
X106348249Y-100403676D01*
X106348365Y-100403772D01*
X106350283Y-100405717D01*
X106667783Y-100723217D01*
X106726726Y-100771633D01*
X106785120Y-100820631D01*
X106788925Y-100822723D01*
X106792278Y-100825477D01*
X106859512Y-100861528D01*
X106926301Y-100898246D01*
X106930433Y-100899557D01*
X106934264Y-100901611D01*
X107007228Y-100923918D01*
X107079869Y-100946961D01*
X107084184Y-100947445D01*
X107088335Y-100948714D01*
X107164211Y-100956422D01*
X107239974Y-100964920D01*
X107248450Y-100964979D01*
X107248619Y-100964996D01*
X107248777Y-100964981D01*
X107251500Y-100965000D01*
X107285618Y-100965000D01*
X107300450Y-100987509D01*
X107437100Y-101103975D01*
X107600787Y-101177760D01*
X107778550Y-101203022D01*
X108629450Y-101203022D01*
X108730571Y-101194958D01*
X108902084Y-101141844D01*
X109052009Y-101043050D01*
X109118531Y-100965000D01*
X109214930Y-100965000D01*
X109215469Y-100965558D01*
X109389307Y-101086379D01*
X109583302Y-101171133D01*
X109790064Y-101216593D01*
X109931609Y-101219558D01*
X109868666Y-101282500D01*
X104735934Y-101282500D01*
X104029076Y-100575642D01*
X105691940Y-100575642D01*
X105730462Y-100572570D01*
X105754482Y-100572570D01*
X105770556Y-100569373D01*
X105793061Y-100567578D01*
X105817274Y-100560080D01*
X105877163Y-100548167D01*
X105940624Y-100521881D01*
X105964574Y-100514464D01*
X105974803Y-100507723D01*
X105992725Y-100500300D01*
X106096729Y-100430807D01*
X106106779Y-100420757D01*
X106114499Y-100415670D01*
X106129692Y-100397844D01*
X106185177Y-100342359D01*
X106214919Y-100297847D01*
X106230965Y-100279020D01*
X106237736Y-100263998D01*
X106241677Y-100271600D01*
G36*
X117092164Y-95875464D02*
X117141620Y-96144928D01*
X117242474Y-96399655D01*
X117390883Y-96629942D01*
X117581196Y-96827016D01*
X117806163Y-96983372D01*
X117906700Y-97027296D01*
X117840644Y-97053984D01*
X117611399Y-97203997D01*
X117415658Y-97395681D01*
X117260877Y-97621734D01*
X117152950Y-97873546D01*
X117095989Y-98141524D01*
X117092164Y-98415464D01*
X117141620Y-98684928D01*
X117242474Y-98939655D01*
X117390883Y-99169942D01*
X117581196Y-99367016D01*
X117806163Y-99523372D01*
X118057215Y-99633054D01*
X118324789Y-99691884D01*
X118598695Y-99697622D01*
X118681500Y-99683021D01*
X118681500Y-99888648D01*
X118663822Y-99909390D01*
X118625921Y-99883825D01*
X118430761Y-99801788D01*
X118223384Y-99759219D01*
X118011689Y-99757741D01*
X117803738Y-99797410D01*
X117607452Y-99876715D01*
X117464736Y-99970105D01*
X117381600Y-99843941D01*
X117244950Y-99727475D01*
X117081263Y-99653690D01*
X116903500Y-99628428D01*
X116268500Y-99628428D01*
X116167379Y-99636492D01*
X115995866Y-99689606D01*
X115845941Y-99788400D01*
X115823427Y-99814816D01*
X115720950Y-99727475D01*
X115557263Y-99653690D01*
X115379500Y-99628428D01*
X114744500Y-99628428D01*
X114643379Y-99636492D01*
X114471866Y-99689606D01*
X114353340Y-99767709D01*
X114353340Y-99303840D01*
X114345901Y-99227978D01*
X114339253Y-99151988D01*
X114338041Y-99147817D01*
X114337618Y-99143500D01*
X114315580Y-99070506D01*
X114294305Y-98997276D01*
X114292308Y-98993424D01*
X114291053Y-98989266D01*
X114255252Y-98921935D01*
X114220163Y-98854241D01*
X114217453Y-98850847D01*
X114215416Y-98847015D01*
X114167225Y-98787926D01*
X114119650Y-98728330D01*
X114113697Y-98722293D01*
X114113591Y-98722164D01*
X114113471Y-98722065D01*
X114111557Y-98720124D01*
X113244934Y-97853500D01*
X114554000Y-97853500D01*
X114629858Y-97846062D01*
X114705852Y-97839413D01*
X114710023Y-97838201D01*
X114714340Y-97837778D01*
X114787334Y-97815740D01*
X114860564Y-97794465D01*
X114864416Y-97792468D01*
X114868574Y-97791213D01*
X114935884Y-97755423D01*
X115003600Y-97720323D01*
X115006996Y-97717612D01*
X115010825Y-97715576D01*
X115069892Y-97667403D01*
X115129510Y-97619810D01*
X115135551Y-97613853D01*
X115135676Y-97613751D01*
X115135772Y-97613635D01*
X115137717Y-97611717D01*
X117095254Y-95654179D01*
X117092164Y-95875464D01*
X117092164Y-95875464D01*
G37*
X117092164Y-95875464D02*
X117141620Y-96144928D01*
X117242474Y-96399655D01*
X117390883Y-96629942D01*
X117581196Y-96827016D01*
X117806163Y-96983372D01*
X117906700Y-97027296D01*
X117840644Y-97053984D01*
X117611399Y-97203997D01*
X117415658Y-97395681D01*
X117260877Y-97621734D01*
X117152950Y-97873546D01*
X117095989Y-98141524D01*
X117092164Y-98415464D01*
X117141620Y-98684928D01*
X117242474Y-98939655D01*
X117390883Y-99169942D01*
X117581196Y-99367016D01*
X117806163Y-99523372D01*
X118057215Y-99633054D01*
X118324789Y-99691884D01*
X118598695Y-99697622D01*
X118681500Y-99683021D01*
X118681500Y-99888648D01*
X118663822Y-99909390D01*
X118625921Y-99883825D01*
X118430761Y-99801788D01*
X118223384Y-99759219D01*
X118011689Y-99757741D01*
X117803738Y-99797410D01*
X117607452Y-99876715D01*
X117464736Y-99970105D01*
X117381600Y-99843941D01*
X117244950Y-99727475D01*
X117081263Y-99653690D01*
X116903500Y-99628428D01*
X116268500Y-99628428D01*
X116167379Y-99636492D01*
X115995866Y-99689606D01*
X115845941Y-99788400D01*
X115823427Y-99814816D01*
X115720950Y-99727475D01*
X115557263Y-99653690D01*
X115379500Y-99628428D01*
X114744500Y-99628428D01*
X114643379Y-99636492D01*
X114471866Y-99689606D01*
X114353340Y-99767709D01*
X114353340Y-99303840D01*
X114345901Y-99227978D01*
X114339253Y-99151988D01*
X114338041Y-99147817D01*
X114337618Y-99143500D01*
X114315580Y-99070506D01*
X114294305Y-98997276D01*
X114292308Y-98993424D01*
X114291053Y-98989266D01*
X114255252Y-98921935D01*
X114220163Y-98854241D01*
X114217453Y-98850847D01*
X114215416Y-98847015D01*
X114167225Y-98787926D01*
X114119650Y-98728330D01*
X114113697Y-98722293D01*
X114113591Y-98722164D01*
X114113471Y-98722065D01*
X114111557Y-98720124D01*
X113244934Y-97853500D01*
X114554000Y-97853500D01*
X114629858Y-97846062D01*
X114705852Y-97839413D01*
X114710023Y-97838201D01*
X114714340Y-97837778D01*
X114787334Y-97815740D01*
X114860564Y-97794465D01*
X114864416Y-97792468D01*
X114868574Y-97791213D01*
X114935884Y-97755423D01*
X115003600Y-97720323D01*
X115006996Y-97717612D01*
X115010825Y-97715576D01*
X115069892Y-97667403D01*
X115129510Y-97619810D01*
X115135551Y-97613853D01*
X115135676Y-97613751D01*
X115135772Y-97613635D01*
X115137717Y-97611717D01*
X117095254Y-95654179D01*
X117092164Y-95875464D01*
G36*
X124989474Y-97415655D02*
X125137883Y-97645942D01*
X125328196Y-97843016D01*
X125412500Y-97901609D01*
X125412500Y-99060000D01*
X125419938Y-99135858D01*
X125426587Y-99211852D01*
X125427799Y-99216023D01*
X125428222Y-99220340D01*
X125450260Y-99293334D01*
X125471535Y-99366564D01*
X125473532Y-99370416D01*
X125474787Y-99374574D01*
X125510577Y-99441884D01*
X125545677Y-99509600D01*
X125548388Y-99512996D01*
X125550424Y-99516825D01*
X125598597Y-99575892D01*
X125646190Y-99635510D01*
X125652147Y-99641551D01*
X125652249Y-99641676D01*
X125652365Y-99641772D01*
X125654283Y-99643717D01*
X125811714Y-99801148D01*
X125089920Y-99801148D01*
X124988799Y-99809212D01*
X124874948Y-99844469D01*
X124874600Y-99843941D01*
X124737950Y-99727475D01*
X124574263Y-99653690D01*
X124396500Y-99628428D01*
X123761500Y-99628428D01*
X123660379Y-99636492D01*
X123488866Y-99689606D01*
X123338941Y-99788400D01*
X123316427Y-99814816D01*
X123213950Y-99727475D01*
X123050263Y-99653690D01*
X122872500Y-99628428D01*
X122237500Y-99628428D01*
X122136379Y-99636492D01*
X121964866Y-99689606D01*
X121814941Y-99788400D01*
X121792427Y-99814816D01*
X121689950Y-99727475D01*
X121526263Y-99653690D01*
X121348500Y-99628428D01*
X120713500Y-99628428D01*
X120612379Y-99636492D01*
X120440866Y-99689606D01*
X120332500Y-99761014D01*
X120332500Y-99314000D01*
X120325062Y-99238142D01*
X120318413Y-99162148D01*
X120317201Y-99157977D01*
X120316778Y-99153660D01*
X120307672Y-99123500D01*
X122174000Y-99123500D01*
X122249858Y-99116062D01*
X122325852Y-99109413D01*
X122330023Y-99108201D01*
X122334340Y-99107778D01*
X122407334Y-99085740D01*
X122480564Y-99064465D01*
X122484416Y-99062468D01*
X122488574Y-99061213D01*
X122555884Y-99025423D01*
X122623600Y-98990323D01*
X122626996Y-98987612D01*
X122630825Y-98985576D01*
X122689892Y-98937403D01*
X122749510Y-98889810D01*
X122755551Y-98883853D01*
X122755676Y-98883751D01*
X122755772Y-98883635D01*
X122757717Y-98881717D01*
X123482407Y-98157027D01*
X123531789Y-98167884D01*
X123805695Y-98173622D01*
X124075499Y-98126048D01*
X124330923Y-98026975D01*
X124562240Y-97880177D01*
X124760639Y-97691245D01*
X124918561Y-97467375D01*
X124966934Y-97358727D01*
X124989474Y-97415655D01*
X124989474Y-97415655D01*
G37*
X124989474Y-97415655D02*
X125137883Y-97645942D01*
X125328196Y-97843016D01*
X125412500Y-97901609D01*
X125412500Y-99060000D01*
X125419938Y-99135858D01*
X125426587Y-99211852D01*
X125427799Y-99216023D01*
X125428222Y-99220340D01*
X125450260Y-99293334D01*
X125471535Y-99366564D01*
X125473532Y-99370416D01*
X125474787Y-99374574D01*
X125510577Y-99441884D01*
X125545677Y-99509600D01*
X125548388Y-99512996D01*
X125550424Y-99516825D01*
X125598597Y-99575892D01*
X125646190Y-99635510D01*
X125652147Y-99641551D01*
X125652249Y-99641676D01*
X125652365Y-99641772D01*
X125654283Y-99643717D01*
X125811714Y-99801148D01*
X125089920Y-99801148D01*
X124988799Y-99809212D01*
X124874948Y-99844469D01*
X124874600Y-99843941D01*
X124737950Y-99727475D01*
X124574263Y-99653690D01*
X124396500Y-99628428D01*
X123761500Y-99628428D01*
X123660379Y-99636492D01*
X123488866Y-99689606D01*
X123338941Y-99788400D01*
X123316427Y-99814816D01*
X123213950Y-99727475D01*
X123050263Y-99653690D01*
X122872500Y-99628428D01*
X122237500Y-99628428D01*
X122136379Y-99636492D01*
X121964866Y-99689606D01*
X121814941Y-99788400D01*
X121792427Y-99814816D01*
X121689950Y-99727475D01*
X121526263Y-99653690D01*
X121348500Y-99628428D01*
X120713500Y-99628428D01*
X120612379Y-99636492D01*
X120440866Y-99689606D01*
X120332500Y-99761014D01*
X120332500Y-99314000D01*
X120325062Y-99238142D01*
X120318413Y-99162148D01*
X120317201Y-99157977D01*
X120316778Y-99153660D01*
X120307672Y-99123500D01*
X122174000Y-99123500D01*
X122249858Y-99116062D01*
X122325852Y-99109413D01*
X122330023Y-99108201D01*
X122334340Y-99107778D01*
X122407334Y-99085740D01*
X122480564Y-99064465D01*
X122484416Y-99062468D01*
X122488574Y-99061213D01*
X122555884Y-99025423D01*
X122623600Y-98990323D01*
X122626996Y-98987612D01*
X122630825Y-98985576D01*
X122689892Y-98937403D01*
X122749510Y-98889810D01*
X122755551Y-98883853D01*
X122755676Y-98883751D01*
X122755772Y-98883635D01*
X122757717Y-98881717D01*
X123482407Y-98157027D01*
X123531789Y-98167884D01*
X123805695Y-98173622D01*
X124075499Y-98126048D01*
X124330923Y-98026975D01*
X124562240Y-97880177D01*
X124760639Y-97691245D01*
X124918561Y-97467375D01*
X124966934Y-97358727D01*
X124989474Y-97415655D01*
G36*
X109457201Y-97660112D02*
X109515620Y-97709131D01*
X109519425Y-97711223D01*
X109522778Y-97713977D01*
X109586660Y-97748231D01*
X109532950Y-97873546D01*
X109475989Y-98141524D01*
X109472164Y-98415464D01*
X109521620Y-98684928D01*
X109622474Y-98939655D01*
X109712750Y-99079736D01*
X109612238Y-99098910D01*
X109415952Y-99178215D01*
X109238808Y-99294134D01*
X109218522Y-99314000D01*
X109122382Y-99314000D01*
X109107550Y-99291491D01*
X108970900Y-99175025D01*
X108807213Y-99101240D01*
X108629450Y-99075978D01*
X107778550Y-99075978D01*
X107759500Y-99077497D01*
X107759500Y-97850055D01*
X107778550Y-97852762D01*
X108629450Y-97852762D01*
X108730571Y-97844698D01*
X108902084Y-97791584D01*
X109052009Y-97692790D01*
X109118531Y-97614740D01*
X109401964Y-97614740D01*
X109457201Y-97660112D01*
X109457201Y-97660112D01*
G37*
X109457201Y-97660112D02*
X109515620Y-97709131D01*
X109519425Y-97711223D01*
X109522778Y-97713977D01*
X109586660Y-97748231D01*
X109532950Y-97873546D01*
X109475989Y-98141524D01*
X109472164Y-98415464D01*
X109521620Y-98684928D01*
X109622474Y-98939655D01*
X109712750Y-99079736D01*
X109612238Y-99098910D01*
X109415952Y-99178215D01*
X109238808Y-99294134D01*
X109218522Y-99314000D01*
X109122382Y-99314000D01*
X109107550Y-99291491D01*
X108970900Y-99175025D01*
X108807213Y-99101240D01*
X108629450Y-99075978D01*
X107778550Y-99075978D01*
X107759500Y-99077497D01*
X107759500Y-97850055D01*
X107778550Y-97852762D01*
X108629450Y-97852762D01*
X108730571Y-97844698D01*
X108902084Y-97791584D01*
X109052009Y-97692790D01*
X109118531Y-97614740D01*
X109401964Y-97614740D01*
X109457201Y-97660112D01*
G36*
X122597883Y-95105942D02*
X122788196Y-95303016D01*
X123013163Y-95459372D01*
X123113700Y-95503296D01*
X123047644Y-95529984D01*
X122818399Y-95679997D01*
X122622658Y-95871681D01*
X122467877Y-96097734D01*
X122359950Y-96349546D01*
X122302989Y-96617524D01*
X122299164Y-96891464D01*
X122316833Y-96987734D01*
X121832066Y-97472500D01*
X119619840Y-97472500D01*
X119578835Y-97410783D01*
X119385790Y-97216385D01*
X119158662Y-97063185D01*
X119077393Y-97029023D01*
X119123923Y-97010975D01*
X119355240Y-96864177D01*
X119553639Y-96675245D01*
X119711561Y-96451375D01*
X119822993Y-96201095D01*
X119883690Y-95933938D01*
X119888059Y-95621017D01*
X119834846Y-95352269D01*
X119818867Y-95313500D01*
X122047000Y-95313500D01*
X122122858Y-95306062D01*
X122198852Y-95299413D01*
X122203023Y-95298201D01*
X122207340Y-95297778D01*
X122280334Y-95275740D01*
X122353564Y-95254465D01*
X122357416Y-95252468D01*
X122361574Y-95251213D01*
X122428884Y-95215423D01*
X122496600Y-95180323D01*
X122499996Y-95177612D01*
X122503825Y-95175576D01*
X122562892Y-95127403D01*
X122595129Y-95101668D01*
X122597883Y-95105942D01*
X122597883Y-95105942D01*
G37*
X122597883Y-95105942D02*
X122788196Y-95303016D01*
X123013163Y-95459372D01*
X123113700Y-95503296D01*
X123047644Y-95529984D01*
X122818399Y-95679997D01*
X122622658Y-95871681D01*
X122467877Y-96097734D01*
X122359950Y-96349546D01*
X122302989Y-96617524D01*
X122299164Y-96891464D01*
X122316833Y-96987734D01*
X121832066Y-97472500D01*
X119619840Y-97472500D01*
X119578835Y-97410783D01*
X119385790Y-97216385D01*
X119158662Y-97063185D01*
X119077393Y-97029023D01*
X119123923Y-97010975D01*
X119355240Y-96864177D01*
X119553639Y-96675245D01*
X119711561Y-96451375D01*
X119822993Y-96201095D01*
X119883690Y-95933938D01*
X119888059Y-95621017D01*
X119834846Y-95352269D01*
X119818867Y-95313500D01*
X122047000Y-95313500D01*
X122122858Y-95306062D01*
X122198852Y-95299413D01*
X122203023Y-95298201D01*
X122207340Y-95297778D01*
X122280334Y-95275740D01*
X122353564Y-95254465D01*
X122357416Y-95252468D01*
X122361574Y-95251213D01*
X122428884Y-95215423D01*
X122496600Y-95180323D01*
X122499996Y-95177612D01*
X122503825Y-95175576D01*
X122562892Y-95127403D01*
X122595129Y-95101668D01*
X122597883Y-95105942D01*
G36*
X103049250Y-96877415D02*
X103212937Y-96951200D01*
X103390700Y-96976462D01*
X105691940Y-96976462D01*
X105793061Y-96968398D01*
X105964574Y-96915284D01*
X105966978Y-96913700D01*
X106108500Y-96913700D01*
X106108500Y-97457124D01*
X106096729Y-97445353D01*
X106052217Y-97415611D01*
X106033390Y-97399565D01*
X106017446Y-97392378D01*
X105992725Y-97375860D01*
X105877163Y-97327993D01*
X105872598Y-97327085D01*
X105869703Y-97325780D01*
X105856868Y-97323956D01*
X105754482Y-97303590D01*
X105713557Y-97303590D01*
X105691940Y-97300518D01*
X103192580Y-97300518D01*
X103154058Y-97303590D01*
X103130038Y-97303590D01*
X103113964Y-97306787D01*
X103091459Y-97308582D01*
X103067246Y-97316080D01*
X103007357Y-97327993D01*
X102943896Y-97354279D01*
X102933500Y-97357499D01*
X102933500Y-96778762D01*
X103049250Y-96877415D01*
X103049250Y-96877415D01*
G37*
X103049250Y-96877415D02*
X103212937Y-96951200D01*
X103390700Y-96976462D01*
X105691940Y-96976462D01*
X105793061Y-96968398D01*
X105964574Y-96915284D01*
X105966978Y-96913700D01*
X106108500Y-96913700D01*
X106108500Y-97457124D01*
X106096729Y-97445353D01*
X106052217Y-97415611D01*
X106033390Y-97399565D01*
X106017446Y-97392378D01*
X105992725Y-97375860D01*
X105877163Y-97327993D01*
X105872598Y-97327085D01*
X105869703Y-97325780D01*
X105856868Y-97323956D01*
X105754482Y-97303590D01*
X105713557Y-97303590D01*
X105691940Y-97300518D01*
X103192580Y-97300518D01*
X103154058Y-97303590D01*
X103130038Y-97303590D01*
X103113964Y-97306787D01*
X103091459Y-97308582D01*
X103067246Y-97316080D01*
X103007357Y-97327993D01*
X102943896Y-97354279D01*
X102933500Y-97357499D01*
X102933500Y-96778762D01*
X103049250Y-96877415D01*
G36*
X113208283Y-92531716D02*
X113267196Y-92580108D01*
X113325620Y-92629131D01*
X113329425Y-92631223D01*
X113332778Y-92633977D01*
X113399977Y-92670009D01*
X113466801Y-92706746D01*
X113470937Y-92708058D01*
X113474764Y-92710110D01*
X113547695Y-92732407D01*
X113620369Y-92755461D01*
X113624683Y-92755945D01*
X113628834Y-92757214D01*
X113704676Y-92764918D01*
X113780474Y-92773420D01*
X113788959Y-92773479D01*
X113789118Y-92773495D01*
X113789266Y-92773481D01*
X113792000Y-92773500D01*
X117161542Y-92773500D01*
X117152950Y-92793546D01*
X117095989Y-93061524D01*
X117092164Y-93335464D01*
X117141620Y-93604928D01*
X117164414Y-93662500D01*
X117094000Y-93662500D01*
X117018048Y-93669947D01*
X116942148Y-93676588D01*
X116937983Y-93677798D01*
X116933660Y-93678222D01*
X116860625Y-93700272D01*
X116787436Y-93721535D01*
X116783584Y-93723532D01*
X116779426Y-93724787D01*
X116712076Y-93760598D01*
X116644400Y-93795678D01*
X116641007Y-93798386D01*
X116637175Y-93800424D01*
X116578081Y-93848620D01*
X116518490Y-93896190D01*
X116512454Y-93902143D01*
X116512324Y-93902249D01*
X116512225Y-93902369D01*
X116510283Y-93904284D01*
X114212066Y-96202500D01*
X112202367Y-96202500D01*
X112202993Y-96201095D01*
X112263690Y-95933938D01*
X112268059Y-95621017D01*
X112214846Y-95352269D01*
X112110446Y-95098975D01*
X111958835Y-94870783D01*
X111765790Y-94676385D01*
X111538662Y-94523185D01*
X111457393Y-94489023D01*
X111503923Y-94470975D01*
X111735240Y-94324177D01*
X111933639Y-94135245D01*
X112091561Y-93911375D01*
X112202993Y-93661095D01*
X112263690Y-93393938D01*
X112268059Y-93081017D01*
X112214846Y-92812269D01*
X112110446Y-92558975D01*
X111958835Y-92330783D01*
X111765790Y-92136385D01*
X111538662Y-91983185D01*
X111457393Y-91949023D01*
X111503923Y-91930975D01*
X111735240Y-91784177D01*
X111933639Y-91595245D01*
X111998358Y-91503500D01*
X112180066Y-91503500D01*
X113208283Y-92531716D01*
X113208283Y-92531716D01*
G37*
X113208283Y-92531716D02*
X113267196Y-92580108D01*
X113325620Y-92629131D01*
X113329425Y-92631223D01*
X113332778Y-92633977D01*
X113399977Y-92670009D01*
X113466801Y-92706746D01*
X113470937Y-92708058D01*
X113474764Y-92710110D01*
X113547695Y-92732407D01*
X113620369Y-92755461D01*
X113624683Y-92755945D01*
X113628834Y-92757214D01*
X113704676Y-92764918D01*
X113780474Y-92773420D01*
X113788959Y-92773479D01*
X113789118Y-92773495D01*
X113789266Y-92773481D01*
X113792000Y-92773500D01*
X117161542Y-92773500D01*
X117152950Y-92793546D01*
X117095989Y-93061524D01*
X117092164Y-93335464D01*
X117141620Y-93604928D01*
X117164414Y-93662500D01*
X117094000Y-93662500D01*
X117018048Y-93669947D01*
X116942148Y-93676588D01*
X116937983Y-93677798D01*
X116933660Y-93678222D01*
X116860625Y-93700272D01*
X116787436Y-93721535D01*
X116783584Y-93723532D01*
X116779426Y-93724787D01*
X116712076Y-93760598D01*
X116644400Y-93795678D01*
X116641007Y-93798386D01*
X116637175Y-93800424D01*
X116578081Y-93848620D01*
X116518490Y-93896190D01*
X116512454Y-93902143D01*
X116512324Y-93902249D01*
X116512225Y-93902369D01*
X116510283Y-93904284D01*
X114212066Y-96202500D01*
X112202367Y-96202500D01*
X112202993Y-96201095D01*
X112263690Y-95933938D01*
X112268059Y-95621017D01*
X112214846Y-95352269D01*
X112110446Y-95098975D01*
X111958835Y-94870783D01*
X111765790Y-94676385D01*
X111538662Y-94523185D01*
X111457393Y-94489023D01*
X111503923Y-94470975D01*
X111735240Y-94324177D01*
X111933639Y-94135245D01*
X112091561Y-93911375D01*
X112202993Y-93661095D01*
X112263690Y-93393938D01*
X112268059Y-93081017D01*
X112214846Y-92812269D01*
X112110446Y-92558975D01*
X111958835Y-92330783D01*
X111765790Y-92136385D01*
X111538662Y-91983185D01*
X111457393Y-91949023D01*
X111503923Y-91930975D01*
X111735240Y-91784177D01*
X111933639Y-91595245D01*
X111998358Y-91503500D01*
X112180066Y-91503500D01*
X113208283Y-92531716D01*
G36*
X124989474Y-94875655D02*
X125137883Y-95105942D01*
X125328196Y-95303016D01*
X125553163Y-95459372D01*
X125653700Y-95503296D01*
X125587644Y-95529984D01*
X125358399Y-95679997D01*
X125162658Y-95871681D01*
X125007877Y-96097734D01*
X124968351Y-96189956D01*
X124937446Y-96114975D01*
X124785835Y-95886783D01*
X124592790Y-95692385D01*
X124365662Y-95539185D01*
X124284393Y-95505023D01*
X124330923Y-95486975D01*
X124562240Y-95340177D01*
X124760639Y-95151245D01*
X124918561Y-94927375D01*
X124966934Y-94818727D01*
X124989474Y-94875655D01*
X124989474Y-94875655D01*
G37*
X124989474Y-94875655D02*
X125137883Y-95105942D01*
X125328196Y-95303016D01*
X125553163Y-95459372D01*
X125653700Y-95503296D01*
X125587644Y-95529984D01*
X125358399Y-95679997D01*
X125162658Y-95871681D01*
X125007877Y-96097734D01*
X124968351Y-96189956D01*
X124937446Y-96114975D01*
X124785835Y-95886783D01*
X124592790Y-95692385D01*
X124365662Y-95539185D01*
X124284393Y-95505023D01*
X124330923Y-95486975D01*
X124562240Y-95340177D01*
X124760639Y-95151245D01*
X124918561Y-94927375D01*
X124966934Y-94818727D01*
X124989474Y-94875655D01*
G36*
X127099060Y-95669634D02*
X126905662Y-95539185D01*
X126824393Y-95505023D01*
X126870923Y-95486975D01*
X127099060Y-95342195D01*
X127099060Y-95669634D01*
X127099060Y-95669634D01*
G37*
X127099060Y-95669634D02*
X126905662Y-95539185D01*
X126824393Y-95505023D01*
X126870923Y-95486975D01*
X127099060Y-95342195D01*
X127099060Y-95669634D01*
G36*
X130797300Y-95640906D02*
X130674048Y-95537485D01*
X130614413Y-95504701D01*
X130656701Y-95482216D01*
X130797300Y-95367546D01*
X130797300Y-95640906D01*
X130797300Y-95640906D01*
G37*
X130797300Y-95640906D02*
X130674048Y-95537485D01*
X130614413Y-95504701D01*
X130656701Y-95482216D01*
X130797300Y-95367546D01*
X130797300Y-95640906D01*
G36*
X119939283Y-93547717D02*
X119998226Y-93596133D01*
X120056620Y-93645131D01*
X120060425Y-93647223D01*
X120063778Y-93649977D01*
X120087133Y-93662500D01*
X119822367Y-93662500D01*
X119822993Y-93661095D01*
X119865512Y-93473946D01*
X119939283Y-93547717D01*
X119939283Y-93547717D01*
G37*
X119939283Y-93547717D02*
X119998226Y-93596133D01*
X120056620Y-93645131D01*
X120060425Y-93647223D01*
X120063778Y-93649977D01*
X120087133Y-93662500D01*
X119822367Y-93662500D01*
X119822993Y-93661095D01*
X119865512Y-93473946D01*
X119939283Y-93547717D01*
G36*
X130797300Y-88020906D02*
X130674048Y-87917485D01*
X130417749Y-87776584D01*
X130138964Y-87688148D01*
X129848312Y-87655546D01*
X129827388Y-87655400D01*
X129506612Y-87655400D01*
X129215532Y-87683941D01*
X128935540Y-87768475D01*
X128677299Y-87905784D01*
X128450647Y-88090637D01*
X128264216Y-88315994D01*
X128125108Y-88573269D01*
X128038621Y-88852665D01*
X128008049Y-89143538D01*
X128034556Y-89434810D01*
X128117134Y-89715385D01*
X128252637Y-89974578D01*
X128435903Y-90202515D01*
X128659952Y-90390515D01*
X128719587Y-90423299D01*
X128677299Y-90445784D01*
X128450647Y-90630637D01*
X128264216Y-90855994D01*
X128125108Y-91113269D01*
X128038621Y-91392665D01*
X128008049Y-91683538D01*
X128034556Y-91974810D01*
X128117134Y-92255385D01*
X128252637Y-92514578D01*
X128435903Y-92742515D01*
X128659952Y-92930515D01*
X128719587Y-92963299D01*
X128677299Y-92985784D01*
X128450647Y-93170637D01*
X128264216Y-93395994D01*
X128133142Y-93638410D01*
X128088654Y-93601867D01*
X128030260Y-93552869D01*
X128026455Y-93550777D01*
X128023102Y-93548023D01*
X127955903Y-93511991D01*
X127889079Y-93475254D01*
X127884943Y-93473942D01*
X127881116Y-93471890D01*
X127808185Y-93449593D01*
X127735511Y-93426539D01*
X127731197Y-93426055D01*
X127727046Y-93424786D01*
X127651164Y-93417078D01*
X127575406Y-93408580D01*
X127566930Y-93408521D01*
X127566761Y-93408504D01*
X127566603Y-93408519D01*
X127563880Y-93408500D01*
X127366840Y-93408500D01*
X127325835Y-93346783D01*
X127132790Y-93152385D01*
X126905662Y-92999185D01*
X126824393Y-92965023D01*
X126870923Y-92946975D01*
X127102240Y-92800177D01*
X127300639Y-92611245D01*
X127458561Y-92387375D01*
X127569993Y-92137095D01*
X127630690Y-91869938D01*
X127635059Y-91557017D01*
X127581846Y-91288269D01*
X127477446Y-91034975D01*
X127325835Y-90806783D01*
X127132790Y-90612385D01*
X127063500Y-90565648D01*
X127063500Y-90360500D01*
X127056057Y-90284597D01*
X127049413Y-90208648D01*
X127048201Y-90204477D01*
X127047778Y-90200160D01*
X127025740Y-90127166D01*
X127004465Y-90053936D01*
X127002468Y-90050084D01*
X127001213Y-90045926D01*
X126965402Y-89978576D01*
X126930322Y-89910900D01*
X126927614Y-89907507D01*
X126925576Y-89903675D01*
X126877380Y-89844581D01*
X126829810Y-89784990D01*
X126823853Y-89778949D01*
X126823751Y-89778824D01*
X126823635Y-89778728D01*
X126821717Y-89776783D01*
X124535717Y-87490783D01*
X124476774Y-87442367D01*
X124418380Y-87393369D01*
X124414575Y-87391277D01*
X124411222Y-87388523D01*
X124344023Y-87352491D01*
X124277199Y-87315754D01*
X124273063Y-87314442D01*
X124269236Y-87312390D01*
X124196305Y-87290093D01*
X124123631Y-87267039D01*
X124119317Y-87266555D01*
X124115166Y-87265286D01*
X124039284Y-87257578D01*
X123963526Y-87249080D01*
X123955050Y-87249021D01*
X123954881Y-87249004D01*
X123954723Y-87249019D01*
X123952000Y-87249000D01*
X112165433Y-87249000D01*
X111670134Y-86753700D01*
X130797300Y-86753700D01*
X130797300Y-88020906D01*
X130797300Y-88020906D01*
G37*
X130797300Y-88020906D02*
X130674048Y-87917485D01*
X130417749Y-87776584D01*
X130138964Y-87688148D01*
X129848312Y-87655546D01*
X129827388Y-87655400D01*
X129506612Y-87655400D01*
X129215532Y-87683941D01*
X128935540Y-87768475D01*
X128677299Y-87905784D01*
X128450647Y-88090637D01*
X128264216Y-88315994D01*
X128125108Y-88573269D01*
X128038621Y-88852665D01*
X128008049Y-89143538D01*
X128034556Y-89434810D01*
X128117134Y-89715385D01*
X128252637Y-89974578D01*
X128435903Y-90202515D01*
X128659952Y-90390515D01*
X128719587Y-90423299D01*
X128677299Y-90445784D01*
X128450647Y-90630637D01*
X128264216Y-90855994D01*
X128125108Y-91113269D01*
X128038621Y-91392665D01*
X128008049Y-91683538D01*
X128034556Y-91974810D01*
X128117134Y-92255385D01*
X128252637Y-92514578D01*
X128435903Y-92742515D01*
X128659952Y-92930515D01*
X128719587Y-92963299D01*
X128677299Y-92985784D01*
X128450647Y-93170637D01*
X128264216Y-93395994D01*
X128133142Y-93638410D01*
X128088654Y-93601867D01*
X128030260Y-93552869D01*
X128026455Y-93550777D01*
X128023102Y-93548023D01*
X127955903Y-93511991D01*
X127889079Y-93475254D01*
X127884943Y-93473942D01*
X127881116Y-93471890D01*
X127808185Y-93449593D01*
X127735511Y-93426539D01*
X127731197Y-93426055D01*
X127727046Y-93424786D01*
X127651164Y-93417078D01*
X127575406Y-93408580D01*
X127566930Y-93408521D01*
X127566761Y-93408504D01*
X127566603Y-93408519D01*
X127563880Y-93408500D01*
X127366840Y-93408500D01*
X127325835Y-93346783D01*
X127132790Y-93152385D01*
X126905662Y-92999185D01*
X126824393Y-92965023D01*
X126870923Y-92946975D01*
X127102240Y-92800177D01*
X127300639Y-92611245D01*
X127458561Y-92387375D01*
X127569993Y-92137095D01*
X127630690Y-91869938D01*
X127635059Y-91557017D01*
X127581846Y-91288269D01*
X127477446Y-91034975D01*
X127325835Y-90806783D01*
X127132790Y-90612385D01*
X127063500Y-90565648D01*
X127063500Y-90360500D01*
X127056057Y-90284597D01*
X127049413Y-90208648D01*
X127048201Y-90204477D01*
X127047778Y-90200160D01*
X127025740Y-90127166D01*
X127004465Y-90053936D01*
X127002468Y-90050084D01*
X127001213Y-90045926D01*
X126965402Y-89978576D01*
X126930322Y-89910900D01*
X126927614Y-89907507D01*
X126925576Y-89903675D01*
X126877380Y-89844581D01*
X126829810Y-89784990D01*
X126823853Y-89778949D01*
X126823751Y-89778824D01*
X126823635Y-89778728D01*
X126821717Y-89776783D01*
X124535717Y-87490783D01*
X124476774Y-87442367D01*
X124418380Y-87393369D01*
X124414575Y-87391277D01*
X124411222Y-87388523D01*
X124344023Y-87352491D01*
X124277199Y-87315754D01*
X124273063Y-87314442D01*
X124269236Y-87312390D01*
X124196305Y-87290093D01*
X124123631Y-87267039D01*
X124119317Y-87266555D01*
X124115166Y-87265286D01*
X124039284Y-87257578D01*
X123963526Y-87249080D01*
X123955050Y-87249021D01*
X123954881Y-87249004D01*
X123954723Y-87249019D01*
X123952000Y-87249000D01*
X112165433Y-87249000D01*
X111670134Y-86753700D01*
X130797300Y-86753700D01*
X130797300Y-88020906D01*
G36*
X130797300Y-93100906D02*
X130674048Y-92997485D01*
X130614413Y-92964701D01*
X130656701Y-92942216D01*
X130797300Y-92827546D01*
X130797300Y-93100906D01*
X130797300Y-93100906D01*
G37*
X130797300Y-93100906D02*
X130674048Y-92997485D01*
X130614413Y-92964701D01*
X130656701Y-92942216D01*
X130797300Y-92827546D01*
X130797300Y-93100906D01*
G36*
X109961196Y-91747016D02*
X110186163Y-91903372D01*
X110286700Y-91947296D01*
X110220644Y-91973984D01*
X109991399Y-92123997D01*
X109811700Y-92299971D01*
X109767862Y-92233444D01*
X109803475Y-92191660D01*
X109877260Y-92027973D01*
X109902522Y-91850210D01*
X109902522Y-91686258D01*
X109961196Y-91747016D01*
X109961196Y-91747016D01*
G37*
X109961196Y-91747016D02*
X110186163Y-91903372D01*
X110286700Y-91947296D01*
X110220644Y-91973984D01*
X109991399Y-92123997D01*
X109811700Y-92299971D01*
X109767862Y-92233444D01*
X109803475Y-92191660D01*
X109877260Y-92027973D01*
X109902522Y-91850210D01*
X109902522Y-91686258D01*
X109961196Y-91747016D01*
G36*
X122580064Y-90409998D02*
X122513441Y-90453900D01*
X122396975Y-90590550D01*
X122323190Y-90754237D01*
X122297928Y-90932000D01*
X122297928Y-92138500D01*
X120864934Y-92138500D01*
X120090717Y-91364283D01*
X120031774Y-91315867D01*
X119973380Y-91266869D01*
X119969575Y-91264777D01*
X119966222Y-91262023D01*
X119899023Y-91225991D01*
X119832199Y-91189254D01*
X119828063Y-91187942D01*
X119824236Y-91185890D01*
X119797750Y-91177792D01*
X119822993Y-91121095D01*
X119883690Y-90853938D01*
X119888059Y-90541017D01*
X119834846Y-90272269D01*
X119730446Y-90018975D01*
X119578835Y-89790783D01*
X119514006Y-89725500D01*
X121895566Y-89725500D01*
X122580064Y-90409998D01*
X122580064Y-90409998D01*
G37*
X122580064Y-90409998D02*
X122513441Y-90453900D01*
X122396975Y-90590550D01*
X122323190Y-90754237D01*
X122297928Y-90932000D01*
X122297928Y-92138500D01*
X120864934Y-92138500D01*
X120090717Y-91364283D01*
X120031774Y-91315867D01*
X119973380Y-91266869D01*
X119969575Y-91264777D01*
X119966222Y-91262023D01*
X119899023Y-91225991D01*
X119832199Y-91189254D01*
X119828063Y-91187942D01*
X119824236Y-91185890D01*
X119797750Y-91177792D01*
X119822993Y-91121095D01*
X119883690Y-90853938D01*
X119888059Y-90541017D01*
X119834846Y-90272269D01*
X119730446Y-90018975D01*
X119578835Y-89790783D01*
X119514006Y-89725500D01*
X121895566Y-89725500D01*
X122580064Y-90409998D01*
G36*
X103007357Y-91648007D02*
X103011922Y-91648915D01*
X103014817Y-91650220D01*
X103027652Y-91652044D01*
X103130038Y-91672410D01*
X103170963Y-91672410D01*
X103192580Y-91675482D01*
X105673628Y-91675482D01*
X105673628Y-91772740D01*
X105681692Y-91873861D01*
X105721931Y-92003800D01*
X105691940Y-91999538D01*
X103390700Y-91999538D01*
X103289579Y-92007602D01*
X103118066Y-92060716D01*
X103115662Y-92062300D01*
X102946200Y-92062300D01*
X102933500Y-92063545D01*
X102933500Y-91617415D01*
X103007357Y-91648007D01*
X103007357Y-91648007D01*
G37*
X103007357Y-91648007D02*
X103011922Y-91648915D01*
X103014817Y-91650220D01*
X103027652Y-91652044D01*
X103130038Y-91672410D01*
X103170963Y-91672410D01*
X103192580Y-91675482D01*
X105673628Y-91675482D01*
X105673628Y-91772740D01*
X105681692Y-91873861D01*
X105721931Y-92003800D01*
X105691940Y-91999538D01*
X103390700Y-91999538D01*
X103289579Y-92007602D01*
X103118066Y-92060716D01*
X103115662Y-92062300D01*
X102946200Y-92062300D01*
X102933500Y-92063545D01*
X102933500Y-91617415D01*
X103007357Y-91648007D01*
G36*
X117415658Y-89775681D02*
X117260877Y-90001734D01*
X117152950Y-90253546D01*
X117095989Y-90521524D01*
X117092164Y-90795464D01*
X117141620Y-91064928D01*
X117164414Y-91122500D01*
X114133933Y-91122500D01*
X113105717Y-90094283D01*
X113046774Y-90045867D01*
X112988380Y-89996869D01*
X112984575Y-89994777D01*
X112981222Y-89992023D01*
X112914023Y-89955991D01*
X112847199Y-89919254D01*
X112843063Y-89917942D01*
X112839236Y-89915890D01*
X112766305Y-89893593D01*
X112693631Y-89870539D01*
X112689317Y-89870055D01*
X112685166Y-89868786D01*
X112609284Y-89861078D01*
X112533526Y-89852580D01*
X112525050Y-89852521D01*
X112524881Y-89852504D01*
X112524723Y-89852519D01*
X112522000Y-89852500D01*
X111999840Y-89852500D01*
X111958835Y-89790783D01*
X111894006Y-89725500D01*
X117466901Y-89725500D01*
X117415658Y-89775681D01*
X117415658Y-89775681D01*
G37*
X117415658Y-89775681D02*
X117260877Y-90001734D01*
X117152950Y-90253546D01*
X117095989Y-90521524D01*
X117092164Y-90795464D01*
X117141620Y-91064928D01*
X117164414Y-91122500D01*
X114133933Y-91122500D01*
X113105717Y-90094283D01*
X113046774Y-90045867D01*
X112988380Y-89996869D01*
X112984575Y-89994777D01*
X112981222Y-89992023D01*
X112914023Y-89955991D01*
X112847199Y-89919254D01*
X112843063Y-89917942D01*
X112839236Y-89915890D01*
X112766305Y-89893593D01*
X112693631Y-89870539D01*
X112689317Y-89870055D01*
X112685166Y-89868786D01*
X112609284Y-89861078D01*
X112533526Y-89852580D01*
X112525050Y-89852521D01*
X112524881Y-89852504D01*
X112524723Y-89852519D01*
X112522000Y-89852500D01*
X111999840Y-89852500D01*
X111958835Y-89790783D01*
X111894006Y-89725500D01*
X117466901Y-89725500D01*
X117415658Y-89775681D01*
G36*
X125333978Y-90623912D02*
X125162658Y-90791681D01*
X125094787Y-90890805D01*
X125090008Y-90830879D01*
X125036894Y-90659366D01*
X124938100Y-90509441D01*
X124801450Y-90392975D01*
X124637763Y-90319190D01*
X124517777Y-90302139D01*
X124516062Y-90284642D01*
X124509413Y-90208648D01*
X124508201Y-90204477D01*
X124507778Y-90200160D01*
X124485740Y-90127166D01*
X124464465Y-90053936D01*
X124462468Y-90050084D01*
X124461213Y-90045926D01*
X124425423Y-89978616D01*
X124390323Y-89910900D01*
X124387612Y-89907504D01*
X124385576Y-89903675D01*
X124337403Y-89844608D01*
X124289810Y-89784990D01*
X124283853Y-89778949D01*
X124283751Y-89778824D01*
X124283635Y-89778728D01*
X124281717Y-89776783D01*
X123404934Y-88900000D01*
X123610066Y-88900000D01*
X125333978Y-90623912D01*
X125333978Y-90623912D01*
G37*
X125333978Y-90623912D02*
X125162658Y-90791681D01*
X125094787Y-90890805D01*
X125090008Y-90830879D01*
X125036894Y-90659366D01*
X124938100Y-90509441D01*
X124801450Y-90392975D01*
X124637763Y-90319190D01*
X124517777Y-90302139D01*
X124516062Y-90284642D01*
X124509413Y-90208648D01*
X124508201Y-90204477D01*
X124507778Y-90200160D01*
X124485740Y-90127166D01*
X124464465Y-90053936D01*
X124462468Y-90050084D01*
X124461213Y-90045926D01*
X124425423Y-89978616D01*
X124390323Y-89910900D01*
X124387612Y-89907504D01*
X124385576Y-89903675D01*
X124337403Y-89844608D01*
X124289810Y-89784990D01*
X124283853Y-89778949D01*
X124283751Y-89778824D01*
X124283635Y-89778728D01*
X124281717Y-89776783D01*
X123404934Y-88900000D01*
X123610066Y-88900000D01*
X125333978Y-90623912D01*
G36*
X130797300Y-90560906D02*
X130674048Y-90457485D01*
X130614413Y-90424701D01*
X130656701Y-90402216D01*
X130797300Y-90287546D01*
X130797300Y-90560906D01*
X130797300Y-90560906D01*
G37*
X130797300Y-90560906D02*
X130674048Y-90457485D01*
X130614413Y-90424701D01*
X130656701Y-90402216D01*
X130797300Y-90287546D01*
X130797300Y-90560906D01*
G36*
X108442830Y-89906736D02*
X108448372Y-89867740D01*
X108448372Y-89138022D01*
X109211545Y-89138022D01*
X108442830Y-89906736D01*
X108442830Y-89906736D01*
G37*
X108442830Y-89906736D02*
X108448372Y-89867740D01*
X108448372Y-89138022D01*
X109211545Y-89138022D01*
X108442830Y-89906736D01*
G36*
X106428867Y-87867226D02*
X106379869Y-87925620D01*
X106377907Y-87929188D01*
X106311700Y-87929188D01*
X106210579Y-87937252D01*
X106039066Y-87990366D01*
X105889141Y-88089160D01*
X105772675Y-88225810D01*
X105698890Y-88389497D01*
X105697240Y-88401111D01*
X105691940Y-88400358D01*
X103192580Y-88400358D01*
X103154058Y-88403430D01*
X103130038Y-88403430D01*
X103113964Y-88406627D01*
X103091459Y-88408422D01*
X103067246Y-88415920D01*
X103007357Y-88427833D01*
X102970217Y-88443217D01*
X103592934Y-87820500D01*
X106467248Y-87820500D01*
X106428867Y-87867226D01*
X106428867Y-87867226D01*
G37*
X106428867Y-87867226D02*
X106379869Y-87925620D01*
X106377907Y-87929188D01*
X106311700Y-87929188D01*
X106210579Y-87937252D01*
X106039066Y-87990366D01*
X105889141Y-88089160D01*
X105772675Y-88225810D01*
X105698890Y-88389497D01*
X105697240Y-88401111D01*
X105691940Y-88400358D01*
X103192580Y-88400358D01*
X103154058Y-88403430D01*
X103130038Y-88403430D01*
X103113964Y-88406627D01*
X103091459Y-88408422D01*
X103067246Y-88415920D01*
X103007357Y-88427833D01*
X102970217Y-88443217D01*
X103592934Y-87820500D01*
X106467248Y-87820500D01*
X106428867Y-87867226D01*
M02*
